<?xml version="1.0" encoding="utf-8"?>
<!-- Generator: Adobe Illustrator 27.5.0, SVG Export Plug-In . SVG Version: 6.00 Build 0)  -->
<svg version="1.1" id="Layer" xmlns="http://www.w3.org/2000/svg" xmlns:xlink="http://www.w3.org/1999/xlink" x="0px" y="0px"
	 viewBox="0 0 580 450" style="enable-background:new 0 0 580 450;" xml:space="preserve">
<g>
	<g>
		<g>
			<path style="fill:#F2F2F2;" d="M148.96,177.352c1.312,0.758,1.345,1.955,0.041,2.712l-37.546,21.819
				c-1.277,0.742-3.37,0.743-4.682-0.015l-37.765-21.804c-1.312-0.758-1.293-1.955-0.015-2.697l37.546-21.819
				c1.304-0.758,3.344-0.758,4.657,0L148.96,177.352z"/>
		</g>
		<g>
			<g style="enable-background:new    ;">
				<g>
					<path style="fill:#CC0007;" d="M144.17,174.689l-0.008,2.877c-0.001,0.413-0.274,0.824-0.825,1.144l0.008-2.877
						C143.896,175.512,144.169,175.101,144.17,174.689z"/>
				</g>
				<g>
					<path style="fill:#CC0007;" d="M73.812,177.545l0.008-2.877c-0.001,0.419,0.276,0.839,0.84,1.165l-0.008,2.877
						C74.089,178.384,73.811,177.964,73.812,177.545z"/>
				</g>
				<g>
					<polygon style="fill:#CC0007;" points="107.087,194.554 107.079,197.431 74.653,178.71 74.661,175.833 					"/>
				</g>
				<g>
					<polygon style="fill:#CC0007;" points="143.345,175.832 143.337,178.709 111.1,197.444 111.108,194.567 					"/>
				</g>
				<g>
					<path style="fill:#CC0007;" d="M111.108,194.567l-0.008,2.877c-1.097,0.637-2.894,0.637-4.021-0.013l0.008-2.877
						C108.214,195.204,110.01,195.204,111.108,194.567z"/>
				</g>
				<g>
					<path style="fill:#FF3D44;" d="M143.31,173.504c1.127,0.65,1.155,1.678,0.036,2.329l-32.238,18.734
						c-1.097,0.638-2.894,0.638-4.02-0.013l-32.426-18.721c-1.127-0.65-1.11-1.678-0.013-2.316l32.238-18.734
						c1.119-0.65,2.871-0.65,3.998,0L143.31,173.504z"/>
				</g>
			</g>
		</g>
		<path style="fill:#E60008;" d="M130.82,170.497h0.02l-10.331-42.07l-23.032-0.059l-10.308,41.908h0.011
			c-1.213,3.979,0.845,8.237,6.192,11.323c8.682,5.013,22.715,5.038,31.343,0.057C129.965,178.626,131.985,174.44,130.82,170.497z"
			/>
		<path style="fill:#F2F2F2;" d="M130.84,170.497l-0.612-2.49c-1.002,1.966-2.829,3.82-5.513,5.369
			c-8.628,4.981-22.661,4.956-31.343-0.057c-2.731-1.577-4.592-3.461-5.609-5.456l-0.594,2.413h0.011
			c-1.213,3.979,0.845,8.237,6.192,11.323c8.682,5.013,22.715,5.038,31.343,0.057c5.25-3.031,7.27-7.217,6.105-11.16H130.84z"/>
		<path style="fill:#FF999D;" d="M117.186,133.662c-4.497,2.597-11.812,2.584-16.338-0.029c-4.526-2.613-4.549-6.836-0.051-9.433
			c4.497-2.597,11.812-2.584,16.338,0.029C121.66,126.843,121.683,131.066,117.186,133.662z"/>
		<path style="fill:#262626;" d="M113.274,131.404c-2.35,1.357-6.173,1.35-8.538-0.015c-2.365-1.365-2.377-3.573-0.027-4.929
			c2.35-1.357,6.173-1.35,8.538,0.015C115.612,127.84,115.624,130.047,113.274,131.404z"/>
		<path style="fill:#E60008;" d="M104.708,128.928c2.35-1.357,6.173-1.35,8.538,0.016c0.632,0.365,1.083,0.792,1.379,1.246
			c0.82-1.244,0.365-2.708-1.379-3.715c-2.365-1.365-6.188-1.372-8.538-0.015c-1.722,0.994-2.163,2.442-1.353,3.684
			C103.647,129.7,104.091,129.284,104.708,128.928z"/>
		<path style="fill:#F2F2F2;" d="M123.455,140.394c-0.054,2.108-1.46,4.163-4.19,5.758c-5.65,3.271-14.815,3.244-20.465-0.027
			c-2.785-1.595-4.217-3.704-4.271-5.813l1.271-5.163c-0.054,0.486,0,0.973,0.108,1.459c0.108,0.433,0.27,0.865,0.514,1.271
			c0.595,1.135,1.703,2.217,3.244,3.109c5.191,2.974,13.571,3.001,18.708,0.027c0.974-0.568,1.757-1.19,2.352-1.838
			c0.703-0.784,1.135-1.622,1.352-2.46c0.135-0.514,0.162-1.027,0.081-1.541L123.455,140.394z"/>
		<path style="fill:#F2F2F2;" d="M127.81,158.129c-0.351,2.487-2.163,4.893-5.434,6.786c-7.354,4.245-19.303,4.218-26.683-0.054
			c-3.325-1.92-5.164-4.353-5.515-6.867l1.595-6.461c0.027,0.324,0.081,0.649,0.162,0.946c0.189,0.865,0.595,1.73,1.217,2.568
			c0.838,1.135,2.054,2.19,3.677,3.109c6.759,3.893,17.681,3.92,24.412,0.054c1.839-1.081,3.19-2.325,4.001-3.649
			c0.405-0.649,0.676-1.298,0.811-1.974c0.081-0.324,0.135-0.649,0.162-0.946L127.81,158.129z"/>
	</g>
	<g>
		<g>
			<path style="fill:#F2F2F2;" d="M336.038,399.951c1.312,0.758,1.345,1.955,0.041,2.713l-37.546,21.819
				c-1.278,0.742-3.37,0.743-4.682-0.015l-37.765-21.804c-1.312-0.758-1.293-1.955-0.015-2.697l37.546-21.819
				c1.304-0.757,3.344-0.757,4.656,0L336.038,399.951z"/>
		</g>
		<g>
			<g style="enable-background:new    ;">
				<g>
					<path style="fill:#CC0007;" d="M331.248,397.288l-0.008,2.877c-0.001,0.413-0.274,0.824-0.825,1.144l0.008-2.877
						C330.974,398.112,331.247,397.7,331.248,397.288z"/>
				</g>
				<g>
					<path style="fill:#CC0007;" d="M260.891,400.144l0.008-2.877c-0.001,0.419,0.276,0.839,0.84,1.165l-0.008,2.877
						C261.167,400.983,260.89,400.563,260.891,400.144z"/>
				</g>
				<g>
					<polygon style="fill:#CC0007;" points="294.165,417.153 294.157,420.03 261.731,401.309 261.739,398.432 					"/>
				</g>
				<g>
					<polygon style="fill:#CC0007;" points="330.423,398.431 330.415,401.309 298.178,420.043 298.186,417.166 					"/>
				</g>
				<g>
					<path style="fill:#CC0007;" d="M298.186,417.166l-0.008,2.877c-1.097,0.637-2.894,0.637-4.021-0.013l0.008-2.877
						C295.292,417.803,297.089,417.803,298.186,417.166z"/>
				</g>
				<g>
					<path style="fill:#FF3D44;" d="M330.388,396.103c1.127,0.65,1.155,1.678,0.036,2.329l-32.238,18.734
						c-1.097,0.638-2.894,0.638-4.02-0.013l-32.426-18.721c-1.127-0.65-1.11-1.678-0.013-2.316l32.238-18.734
						c1.119-0.651,2.871-0.651,3.998,0L330.388,396.103z"/>
				</g>
			</g>
		</g>
		<path style="fill:#E60008;" d="M317.898,393.097h0.02l-10.331-42.07l-23.031-0.059l-10.308,41.908h0.011
			c-1.213,3.979,0.845,8.237,6.192,11.323c8.682,5.013,22.715,5.038,31.343,0.057C317.043,401.225,319.063,397.039,317.898,393.097z
			"/>
		<path style="fill:#F2F2F2;" d="M317.918,393.097l-0.612-2.49c-1.002,1.966-2.829,3.819-5.513,5.369
			c-8.628,4.981-22.661,4.956-31.343-0.057c-2.732-1.577-4.592-3.461-5.609-5.456l-0.594,2.413h0.011
			c-1.213,3.979,0.845,8.237,6.192,11.323c8.682,5.013,22.715,5.038,31.343,0.057c5.25-3.031,7.27-7.217,6.105-11.16H317.918z"/>
		<path style="fill:#FF999D;" d="M304.264,356.261c-4.497,2.596-11.812,2.583-16.338-0.029c-4.526-2.613-4.549-6.836-0.051-9.433
			c4.497-2.597,11.812-2.583,16.338,0.029C308.738,349.442,308.761,353.665,304.264,356.261z"/>
		<path style="fill:#262626;" d="M300.352,354.003c-2.35,1.357-6.173,1.35-8.538-0.015c-2.365-1.365-2.377-3.572-0.026-4.929
			c2.35-1.357,6.173-1.35,8.538,0.015C302.69,350.439,302.702,352.646,300.352,354.003z"/>
		<path style="fill:#E60008;" d="M291.786,351.527c2.35-1.357,6.173-1.35,8.538,0.015c0.632,0.365,1.083,0.792,1.379,1.246
			c0.82-1.244,0.365-2.708-1.379-3.715c-2.365-1.365-6.188-1.372-8.538-0.015c-1.722,0.994-2.163,2.442-1.353,3.684
			C290.725,352.299,291.169,351.883,291.786,351.527z"/>
		<path style="fill:#F2F2F2;" d="M310.533,362.993c-0.054,2.108-1.46,4.163-4.19,5.758c-5.65,3.271-14.815,3.244-20.465-0.027
			c-2.784-1.595-4.217-3.704-4.271-5.813l1.271-5.163c-0.054,0.486,0,0.973,0.108,1.459c0.108,0.433,0.27,0.865,0.514,1.271
			c0.595,1.135,1.703,2.217,3.244,3.109c5.191,2.974,13.571,3.001,18.708,0.027c0.973-0.568,1.757-1.189,2.352-1.838
			c0.703-0.784,1.135-1.622,1.352-2.46c0.135-0.514,0.162-1.027,0.081-1.541L310.533,362.993z"/>
		<path style="fill:#F2F2F2;" d="M314.888,380.728c-0.351,2.487-2.163,4.893-5.434,6.786c-7.354,4.245-19.303,4.217-26.683-0.054
			c-3.325-1.92-5.164-4.352-5.515-6.867l1.595-6.462c0.027,0.324,0.081,0.649,0.162,0.946c0.189,0.865,0.595,1.73,1.217,2.568
			c0.838,1.135,2.055,2.19,3.677,3.109c6.759,3.893,17.681,3.92,24.412,0.054c1.839-1.081,3.19-2.325,4.001-3.649
			c0.406-0.649,0.676-1.298,0.811-1.974c0.081-0.324,0.135-0.649,0.162-0.946L314.888,380.728z"/>
	</g>
	<g>
		<g>
			
				<ellipse transform="matrix(0.0054 -1 1 0.0054 62.5323 519.7954)" style="fill:#27218A;" cx="292.577" cy="228.462" rx="78.024" ry="135.147"/>
			<path style="fill:#6D64FF;" d="M196.716,201.797c52.612-30.376,138.181-30.221,191.124,0.345
				c20.224,11.676,32.734,26.103,37.574,41.165c7.917-24.493-4.617-50.819-37.574-69.846
				c-52.943-30.566-138.512-30.721-191.124-0.345c-32.515,18.772-44.806,44.81-36.976,69.18
				C164.541,227.443,176.855,213.264,196.716,201.797z"/>
			<g>
				<g style="enable-background:new    ;">
					<g>
						<polygon style="fill:#9D9D9D;" points="302.887,258.822 313.187,255.105 306.842,296.569 296.543,300.286 						"/>
					</g>
					<g>
						<polygon style="fill:#9D9D9D;" points="311.515,202.428 321.815,198.71 315.471,240.176 305.171,243.892 						"/>
					</g>
					<g>
						<path style="fill:#F2F2F2;" d="M306.846,296.561l14.323,8.264c-4.804,0.592-9.662,1.022-14.538,1.291l-10.092-5.826
							L306.846,296.561z"/>
					</g>
					<g>
						<polygon style="fill:#9D9D9D;" points="320.146,146.017 330.447,142.3 324.099,183.781 313.8,187.498 						"/>
					</g>
					<g>
						<polygon style="fill:#F2F2F2;" points="305.171,243.892 315.471,240.176 384.446,279.998 374.146,283.715 						"/>
					</g>
					<g>
						<polygon style="fill:#F2F2F2;" points="315.998,87.364 326.298,83.647 338.355,90.608 328.056,94.325 						"/>
					</g>
					<g>
						<polygon style="fill:#9D9D9D;" points="328.056,94.325 338.355,90.608 332.728,127.387 322.428,131.104 						"/>
					</g>
					<g>
						<polygon style="fill:#F2F2F2;" points="313.8,187.498 324.099,183.781 393.075,223.604 382.775,227.321 						"/>
					</g>
					<g>
						<polygon style="fill:#F2F2F2;" points="322.428,131.104 332.728,127.387 401.703,167.21 391.403,170.927 						"/>
					</g>
					<g>
						<polygon style="fill:#F2F2F2;" points="397.031,134.148 407.33,130.431 419.401,137.4 409.101,141.117 						"/>
					</g>
					<g>
						<path style="fill:#E6E6E6;" d="M397.03,134.155l-4.266,27.892l-1.362,8.873l-68.978-39.813l5.629-36.784l-12.046-6.955
							l-9.716,63.511l-23.769,155.362c8.031,0.358,16.097,0.323,24.11-0.125l-10.092-5.826l6.346-41.462l8.945,5.163l53.096,30.653
							c7.869-2.85,15.326-6.22,22.228-10.11l15.452-100.993l6.489-42.43L397.03,134.155z M320.147,146.021l8.945,5.163l5.7,3.298
							l54.333,31.352l-4.983,32.607l-1.362,8.873l-68.978-39.813l5.413-35.439L320.147,146.021z M305.179,243.895l6.328-41.462
							l8.945,5.163l60.033,34.65l-4.983,32.589l-1.362,8.873L305.179,243.895z"/>
					</g>
					<g>
						<path style="fill:#9D9D9D;" d="M419.401,137.399l-8.264,54.01l-13.211,86.312c-2.94,2.097-6.113,4.123-9.483,6.077
							c-0.43,0.251-0.86,0.484-1.291,0.735l15.452-100.993l6.489-42.43L419.401,137.399z"/>
					</g>
				</g>
			</g>
		</g>
		<g>
			<g>
				<path style="fill:#FFC7A6;" d="M270.455,305.361c-18.967-1.874-37.389-6.091-53.882-12.654
					c-0.332-24.809,0.572-58.386,0.572-58.912c0.018-1.227-0.083-2.473-0.499-3.636c-0.249-0.701-0.655-1.338-1.163-1.929
					c-1.966-2.354-5.473-4.006-7.568-5.815c-2.215-1.92-4.144-4.135-5.953-6.442c-0.766-0.997-1.523-2.003-2.261-3.018
					c-1.329-1.818-2.741-3.932-4.338-5.833c-0.102-0.12-0.194-0.24-0.305-0.351c-1.55-1.809-3.295-3.396-5.335-4.338
					c-0.858-1.375-1.237-3.636-0.249-4.929c0.369-0.508,0.951-0.794,1.495-1.098c1.394-0.803,2.63-1.827,3.738-2.99
					c0.194-0.194,0.378-0.388,0.554-0.591c0.821-0.914,1.56-1.883,2.261-2.889c1.218-1.744,2.289-3.609,3.184-5.547
					c0.046-0.083,0.083-0.166,0.12-0.249c0.24-0.517,0.461-1.043,0.674-1.569c1.098-2.732,1.864-5.584,2.243-8.473
					c0.055-0.452,0.102-0.914,0.138-1.366c0.037-0.388,0.055-0.766,0.074-1.145c0.037-0.794,0.046-1.578,0.018-2.363
					c-0.074-2.437-0.452-4.864-1.181-7.217c-0.452-1.468-1.024-2.889-1.643-4.292c-0.443-1.025-0.914-2.04-1.375-3.055
					c-0.092-0.185-0.175-0.378-0.258-0.563c-0.12-0.258-0.249-0.526-0.378-0.794c-0.175-0.369-0.36-0.748-0.526-1.135
					c-0.295-0.618-0.545-1.255-0.711-1.883c-0.341-1.329-0.424-2.418-1.421-3.498c0.452-0.461,1.043-0.747,1.671-0.951
					c0.286-0.092,0.581-0.175,0.877-0.24c0.646-0.157,1.292-0.295,1.947-0.406c2.473-0.443,4.975-0.591,7.485-0.526
					c2.243,0.046,4.504,0.268,6.747,0.6c3.443,0.508,6.867,1.274,10.217,2.113c2.372,0.572,4.43,1.394,6.59,2.52
					c1.228,0.655,2.492,1.311,3.544,2.243c1.412,1.237,2.381,2.833,3.129,4.559c0.84,1.91,1.403,3.987,2.021,5.898
					c0.009,0.018,0.009,0.046,0.019,0.065c1.191,3.664,2.344,7.347,3.47,11.029c2.224,7.199,4.245,14.343,6.571,21.514
					c2.372,7.282,4.596,14.62,6.59,22.012c0.803,3.009,1.79,8.27,2.852,14.795c4.172,25.243,9.562,69.203,10.199,73.005
					C270.427,305.139,270.446,305.25,270.455,305.361z"/>
				<g>
					<g>
						<g style="enable-background:new    ;">
							<g>
								<path style="fill:#D9D9D9;" d="M213.941,54.706l2.393,171.543c0.014,1.047-0.658,2.103-2.021,2.925
									c-2.743,1.653-7.239,1.726-10.052,0.161c-1.415-0.788-2.133-1.838-2.147-2.898l-2.393-171.543
									c0.014,1.06,0.732,2.111,2.147,2.898c2.813,1.564,7.309,1.492,10.052-0.161C213.283,56.81,213.955,55.753,213.941,54.706z"
									/>
							</g>
							<g>
								<path style="fill:#F2F2F2;" d="M211.795,51.809c2.813,1.564,2.869,4.168,0.126,5.822c-2.743,1.653-7.239,1.725-10.052,0.161
									c-2.813-1.565-2.869-4.169-0.126-5.822C204.485,50.316,208.982,50.244,211.795,51.809z"/>
							</g>
						</g>
					</g>
					<g style="enable-background:new    ;">
						<path style="fill:#FFAA00;" d="M251.304,87.859l-96.796-53.837c-1.126-0.627-2.144-0.671-2.872-0.232l-1.968,1.186
							c0.728-0.439,1.746-0.394,2.872,0.232l96.796,53.837c2.234,1.243,4.076,4.32,4.11,6.883l0.919,69.67
							c0.017,1.276-0.418,2.179-1.134,2.611l1.967-1.186c0.717-0.432,1.151-1.335,1.134-2.611l-0.918-69.671
							C255.381,92.178,253.538,89.101,251.304,87.859z"/>
						<g>
							<path style="fill:#FFC800;" d="M249.337,89.045c2.234,1.242,4.076,4.319,4.11,6.883l0.919,69.67
								c0.034,2.564-1.755,3.621-3.988,2.379l-96.796-53.837c-2.234-1.243-4.094-4.33-4.128-6.893l-0.918-69.671
								c-0.034-2.564,1.773-3.611,4.006-2.369L249.337,89.045z"/>
						</g>
						<g>
							<path style="fill:#262626;" d="M180.024,84.804V60.152l-0.055-0.028l-19.936,17.361v0.055l15.164,8.759v9.073l4.827,2.787
								v-9.073l4.273,2.464v-4.273L180.024,84.804z M175.197,82.016l-7.91-4.559l7.91-7.134V82.016z"/>
							<path style="fill:#262626;" d="M214.46,91.938c-0.24-1.172-0.554-2.326-0.923-3.47c-1.163-3.563-2.778-6.701-4.846-9.423
								c-2.077-2.714-4.458-4.855-7.144-6.405c-0.545-0.314-1.071-0.6-1.588-0.84c-3.526-1.707-6.359-1.763-8.482-0.148
								c-2.437,1.846-3.655,5.87-3.655,12.063c0,3.886,0.581,7.605,1.744,11.168s2.778,6.71,4.846,9.442
								c1.8,2.372,3.821,4.301,6.073,5.778c0.351,0.231,0.701,0.452,1.061,0.655c2.686,1.587,5.067,2.215,7.144,1.892
								c2.067-0.323,3.683-1.597,4.846-3.821c0.471-0.895,0.84-1.948,1.117-3.129c0.415-1.735,0.618-3.784,0.618-6.138
								C215.272,96.959,215.004,94.412,214.46,91.938z M207.99,105.404c-1.514,1.634-3.673,1.643-6.488,0.019
								c-0.378-0.212-0.738-0.452-1.089-0.701c-2.261-1.588-4.043-3.84-5.326-6.738c-1.495-3.35-2.252-7.153-2.289-11.389
								c0.037-4.172,0.794-7.061,2.289-8.667c1.209-1.32,2.861-1.56,4.947-0.729c0.462,0.185,0.951,0.425,1.467,0.72
								c2.815,1.634,4.975,4.107,6.488,7.43c1.504,3.323,2.28,7.07,2.307,11.232C210.27,100.817,209.494,103.761,207.99,105.404z"/>
							<path style="fill:#262626;" d="M237.7,118.104V93.452l-0.046-0.028l-19.945,17.361v0.055l15.164,8.759v9.073l4.827,2.787
								v-9.073l4.273,2.464v-4.273L237.7,118.104z M232.872,115.316l-7.9-4.559l7.9-7.134V115.316z"/>
						</g>
						<g>
							<path style="fill:#262626;" d="M181.658,118.879c-0.637-0.369-1.209-0.858-1.708-1.477c-0.498-0.618-0.895-1.301-1.19-2.049
								l8.039,1.403c-0.332-1.781-0.941-3.369-1.827-4.772c-0.886-1.403-1.994-2.492-3.313-3.249
								c-1.034-0.6-1.984-0.868-2.843-0.812c-0.868,0.046-1.551,0.406-2.049,1.062c-0.498,0.664-0.748,1.56-0.748,2.704
								c0,1.181,0.231,2.372,0.692,3.572c0.452,1.2,1.098,2.307,1.938,3.332c0.849,1.015,1.827,1.855,2.954,2.501
								c0.591,0.341,1.2,0.572,1.827,0.701c0.628,0.129,1.209,0.148,1.754,0.046l-1.052-2.547
								C183.329,119.507,182.498,119.368,181.658,118.879z M178.299,113.507c-0.019-0.157-0.028-0.378-0.028-0.655
								c0-1.163,0.305-1.947,0.914-2.344c0.6-0.397,1.366-0.332,2.298,0.203c0.664,0.388,1.227,0.904,1.68,1.56
								c0.443,0.655,0.794,1.366,1.034,2.151L178.299,113.507z"/>
							<path style="fill:#262626;" d="M194.487,116.562c-0.544-0.046-1.052,0.028-1.532,0.24c-0.48,0.212-0.858,0.554-1.117,1.043
								l-0.166-2.852l-2.04-1.172v11.629l2.28,1.32v-5.316c0-0.748,0.166-1.357,0.508-1.827c0.332-0.471,0.794-0.729,1.394-0.757
								c0.591-0.028,1.255,0.185,1.993,0.646l0.102-2.557C195.493,116.747,195.022,116.608,194.487,116.562z"/>
							<path style="fill:#262626;" d="M203.689,121.879c-0.535-0.046-1.043,0.028-1.523,0.24c-0.489,0.212-0.858,0.554-1.117,1.043
								l-0.175-2.852l-0.24-0.139l-1.791-1.034v11.629l1.947,1.126l0.332,0.194v-5.316c0-0.748,0.166-1.357,0.498-1.827
								c0.332-0.471,0.803-0.729,1.394-0.757c0.6-0.028,1.264,0.185,2.003,0.646l0.092-2.557
								C204.704,122.063,204.233,121.925,203.689,121.879z"/>
							<path style="fill:#262626;" d="M217.201,132.289c-0.471-1.209-1.126-2.326-1.966-3.35c-0.083-0.102-0.166-0.203-0.258-0.305
								c-0.775-0.886-1.652-1.615-2.612-2.169c-1.08-0.628-2.049-0.914-2.907-0.868c-0.858,0.055-1.523,0.406-2.003,1.08
								c-0.489,0.664-0.729,1.569-0.729,2.714c0,1.237,0.24,2.464,0.729,3.673c0.48,1.218,1.144,2.326,1.993,3.332
								c0.849,1.006,1.8,1.818,2.861,2.427c1.052,0.609,1.994,0.904,2.815,0.868h0.102c0.849-0.055,1.504-0.415,1.975-1.098
								c0.462-0.674,0.692-1.597,0.692-2.75C217.893,134.68,217.662,133.499,217.201,132.289z M215.078,136.424
								c-0.12,0.175-0.268,0.314-0.443,0.434c-0.618,0.406-1.403,0.332-2.344-0.212c-0.609-0.351-1.163-0.84-1.652-1.486
								c-0.498-0.646-0.895-1.357-1.181-2.141s-0.425-1.541-0.425-2.271c0-0.729,0.138-1.32,0.425-1.772
								c0.286-0.461,0.674-0.72,1.163-0.803c0.489-0.083,1.043,0.046,1.671,0.415c0.941,0.545,1.726,1.384,2.344,2.52
								c0.148,0.268,0.277,0.526,0.388,0.794c0.369,0.877,0.545,1.744,0.545,2.621C215.567,135.344,215.41,135.981,215.078,136.424z
								"/>
							<path style="fill:#262626;" d="M225.803,134.643c-0.535-0.046-1.043,0.037-1.523,0.24c-0.489,0.212-0.858,0.563-1.117,1.043
								l-0.175-2.852l-2.031-1.172v11.638l2.28,1.311v-5.307c0-0.757,0.166-1.366,0.498-1.837c0.332-0.471,0.803-0.72,1.394-0.757
								c0.6-0.028,1.264,0.185,2.003,0.646l0.092-2.557C226.818,134.828,226.347,134.689,225.803,134.643z"/>
						</g>
					</g>
				</g>
				<path style="fill:#FFF2E6;" d="M184.645,196.158c-0.034,1.756,0.471,3.526,1.491,4.958c1.592,2.235,4.142,3.485,6.624,4.476
					c1.246,0.498,2.236,1.288,3.53,1.713c1.417,0.465,2.898,0.707,4.381,0.838c2.564,0.225,5.264,0.094,7.523-1.14
					c2.971-1.624,4.756-5.181,4.281-8.534c-0.057-0.403-0.142-0.825-0.005-1.208c0.142-0.397,0.493-0.673,0.809-0.952
					c3.016-2.661,3.748-7.557,1.644-10.984c-0.201-0.328-0.433-0.67-0.424-1.055c0.008-0.344,0.208-0.649,0.373-0.951
					c1.1-2.018,0.691-4.745-0.952-6.352c1.295-0.636,2.047-2.074,2.229-3.505c0.181-1.432-0.121-2.876-0.448-4.281
					c-1.607-6.907-4.021-13.931-9.022-18.958c-2.024-2.035-4.519-3.724-7.342-4.243c-2.206-0.405-4.635-0.003-6.48,1.311
					c-1.984,1.413-3.157,3.472-3.182,5.973c-0.017,1.727,0.348,3.267,0.796,4.927c0.026,0.095,0.049,0.197,0.015,0.289
					c-0.061,0.163-0.263,0.212-0.434,0.242c-2.628,0.462-5.038,2.053-6.494,4.289c-1.811,2.78-2.204,6.721-0.525,9.64
					c0.838,1.456,2.016,2.688,3.279,3.796c0.142,0.125,0.299,0.321,0.197,0.48c-0.041,0.064-0.114,0.098-0.182,0.132
					c-2.052,0.99-3.21,3.643-3.426,5.796c-0.161,1.61,0.1,3.281,0.879,4.7c0.779,1.418,2.096,2.563,3.654,3
					c-0.833,0.38-1.431,1.143-1.86,1.951C184.975,193.626,184.669,194.888,184.645,196.158z"/>
				<path style="fill:#FFE5CC;" d="M184.645,196.158c-0.034,1.756,0.471,3.526,1.491,4.958c1.792,2.516,4.597,4.413,7.476,5.44
					c2.236,0.798,4.697,1.379,7.058,1.586c2.564,0.225,5.264,0.094,7.523-1.14c2.971-1.624,4.756-5.181,4.281-8.534
					c-0.057-0.403-0.142-0.825-0.005-1.208c0.142-0.397,0.493-0.673,0.809-0.952c3.016-2.661,3.748-7.557,1.644-10.984
					c-0.201-0.328-0.433-0.67-0.424-1.055c0.008-0.344,0.208-0.649,0.373-0.951c1.1-2.018,0.691-4.745-0.952-6.352
					c1.295-0.636,2.047-2.074,2.229-3.505c0.181-1.432-0.121-2.876-0.448-4.281c-1.607-6.907-4.021-13.931-9.022-18.958
					c-2.024-2.035-4.519-3.724-7.342-4.243c-2.206-0.405-4.635-0.003-6.48,1.311c-1.984,1.413-3.157,3.472-3.182,5.973
					c-0.017,1.727,0.348,3.267,0.796,4.927c0.026,0.095,0.049,0.197,0.015,0.289c-0.061,0.163-0.263,0.212-0.434,0.242
					c-2.628,0.462-5.038,2.053-6.494,4.289c-1.811,2.78-2.204,6.721-0.525,9.64c0.838,1.456,2.016,2.688,3.279,3.796
					c0.142,0.125,0.299,0.321,0.197,0.48c-0.041,0.064-0.114,0.098-0.182,0.132c-2.052,0.99-3.21,3.643-3.426,5.796
					c-0.161,1.61,0.1,3.281,0.879,4.7c0.779,1.418,2.096,2.563,3.654,3c-0.833,0.38-1.431,1.143-1.86,1.951
					C184.975,193.626,184.669,194.888,184.645,196.158z"/>
				<path style="fill:#FFB78C;" d="M212.586,197.03c-0.046,0.076-0.091,0.152-0.122,0.228c-0.046,0.137-0.061,0.259-0.076,0.396
					c-2.023,0.091-4.062,0.03-6.085-0.091c-2.617-0.137-4.913-1.156-7.287-2.236c-2.434-1.111-4.868-2.221-7.393-3.103
					c-1.247-0.441-2.525-0.821-3.818-1.111c-0.319-0.076-0.654-0.122-1.004-0.182c0.198-0.152,0.396-0.274,0.624-0.38
					c-0.548-0.152-1.08-0.411-1.552-0.73c2.86,0.441,5.674,1.065,8.199,2.404c2.403,1.262,4.776,2.282,7.439,2.829
					C205.177,195.813,208.874,196.483,212.586,197.03z"/>
				<path style="fill:#FFB78C;" d="M214.913,181.697c-1.78,1.019-3.575,2.053-5.507,2.738c-1.065,0.38-2.175,0.654-3.286,0.822
					c-0.715,0.122-1.46,0.182-2.176,0.091c-0.593-0.091-1.171-0.259-1.734-0.441c-3.346-1.095-6.632-2.434-9.69-4.214
					c-1.445-0.852-2.83-1.734-4.29-2.556c-0.624-0.35-1.247-0.715-1.84-1.11c0.046-0.031,0.091-0.061,0.122-0.107
					c0.091-0.152-0.061-0.35-0.198-0.472c-0.107-0.091-0.198-0.183-0.304-0.274c0.031,0.015,0.076,0.03,0.106,0.046
					c0.669,0.304,1.339,0.624,1.978,0.989c0.654,0.411,9.675,5.568,10.512,5.978c1.399,0.669,2.845,1.247,4.351,1.643
					c0.852,0.228,1.749,0.396,2.632,0.335c1.156-0.076,2.251-0.532,3.316-0.973C210.912,183.355,212.905,182.533,214.913,181.697z"
					/>
				<path style="fill:#FFB78C;" d="M214.807,177.042c-0.228-0.046-0.441-0.106-0.654-0.213c-0.456-0.182-0.897-0.456-1.339-0.715
					c-1.673-0.974-3.453-1.932-5.34-2.328c-2.038-0.426-4.092-1.217-6.024-1.977c-0.806-0.32-1.582-0.73-2.343-1.156
					c-1.902-1.065-3.331-2.267-4.548-3.757c-0.791-0.974-1.506-2.069-2.191-3.316c-0.867-1.567-1.628-3.195-2.282-4.853
					c0.167-0.046,0.335-0.107,0.396-0.243c0-0.015,0-0.015,0-0.031c0.669,1.232,1.384,2.434,2.053,3.697
					c0.715,1.354,1.628,2.616,2.556,3.818c0.715,0.913,1.43,1.825,2.327,2.556c1.156,0.973,2.571,1.612,3.986,2.145
					c1.567,0.593,3.499,1.385,5.172,1.43c1.582,0.046,2.449,0.472,3.681,1.521c1.308,1.095,2.677,2.145,4.077,3.103
					C214.487,176.829,214.655,176.935,214.807,177.042z"/>
				<path style="fill:#FFF2E6;" d="M178.863,169.704c2.095,1.384,4.638,1.885,7.124,2.237c2.655,0.376,5.448,0.599,7.941-0.388
					c0.599-0.237,1.215-0.549,1.853-0.459c0.372,0.052,0.711,0.238,1.042,0.415c1.728,0.919,3.54,1.68,5.406,2.269
					c0.94,0.297,2.001,0.542,2.878,0.091c1.01,1.512,2.279,2.851,3.734,3.942c-0.458,5.424,1.188,11.237,3.598,16.075
					c0.527,1.057,1.129,2.115,2.049,2.855c0.926,0.746,2.099,1.108,3.256,1.381c2.635,0.624,5.447,0.864,8.021,0.023
					c3.448-1.126,6.069-4.102,7.468-7.448c2.086-4.99,1.718-10.711,0.256-15.918c-0.608-2.165-1.429-4.334-2.926-6.011
					c-1.226-1.374-2.834-2.339-4.416-3.282c-4.091-2.44-8.183-4.88-12.275-7.32c-5.471-3.263-11.464-6.646-17.793-5.921
					c-0.601,0.069-1.212,0.18-1.736,0.482c-0.626,0.36-1.071,0.957-1.549,1.499c-2.833,3.21-7.141,4.725-11.368,5.407
					c-2.301,0.371-5.487,1.492-5.885,4.261C175.219,166.145,177.093,168.535,178.863,169.704z"/>
				<path style="fill:#E60008;" d="M175.849,165.137c0.283,0.844,0.943,1.554,1.765,1.897c0.631,0.264,1.33,0.314,2.014,0.314
					c0.987,0,1.985-0.102,2.914-0.436c1.269-0.456,2.374-1.352,3.085-2.497c0.711-1.146,1.021-2.534,0.866-3.874
					c-0.032-0.282-0.095-0.581-0.297-0.781c-0.251-0.247-0.64-0.271-0.992-0.27C182.317,159.499,174.278,160.449,175.849,165.137z"
					/>
				<path style="fill:#FFB78C;" d="M196.719,171.459c-0.304-0.152-0.608-0.304-0.943-0.365c-0.198-0.03-0.395-0.015-0.593,0.031
					c0.152-0.457,0.304-0.928,0.304-1.521c-0.03-1.247-0.35-2.48-0.684-3.682c-0.107-0.441-0.243-0.882-0.441-1.278
					C195.609,166.697,195.974,169.177,196.719,171.459z"/>
				<path style="fill:#FFB78C;" d="M200.401,152.352c-0.563,2.48-1.4,4.974-3.164,6.785c-0.319,0.32-0.669,0.624-1.095,0.791
					c1.217-1.399,2.13-3.088,2.662-4.868c0.274-0.928,0.532-1.978,0.182-2.875C199.458,152.216,199.929,152.261,200.401,152.352z"/>
				<path style="fill:#FFB78C;" d="M193.616,159.852c-0.715-1.247-0.897-2.753-0.639-4.168c0.183-0.958,0.563-1.871,1.065-2.693
					c0.015-0.03,0.031-0.061,0.061-0.091c0.076-0.061,0.152-0.122,0.243-0.167c0.319-0.183,0.685-0.304,1.065-0.38
					C194.133,154.68,193.403,157.144,193.616,159.852z"/>
				<path style="fill:#FFB78C;" d="M189.323,179.104c-0.425,1.724-0.166,3.483-0.371,5.23c-0.212,1.814-0.799,3.605-1.893,5.084
					c0.424-1.777,0.663-3.589,0.941-5.393c0.138-0.901,0.287-1.799,0.472-2.692C188.635,180.543,189.112,179.878,189.323,179.104z"
					/>
				<path style="fill:#FFB78C;" d="M187.832,195.47c-0.504,1.211-0.583,2.578-0.329,3.865c0.499-1.991,1.129-4.02,2.455-5.586
					c0.422-0.499,0.925-0.944,1.551-1.161c-0.821,0.187-1.453,0.226-2.132,0.783C188.7,193.926,188.169,194.661,187.832,195.47z"/>
				<path style="fill:#FFB78C;" d="M204.292,184.451c-0.166-1.666,0.006-3.393,1.043-4.764c0.97-1.283,1.69-3.066,3.089-3.988
					c-0.93,0.613-1.863,1.229-2.692,1.973c-1.973,1.77-3.002,4.456-1.431,6.865C204.298,184.507,204.295,184.479,204.292,184.451z"
					/>
			</g>
		</g>
	</g>
	<g>
		<g>
			<path style="fill:#F2F2F2;" d="M197.457,417.615L45.022,329.437c-2.319-1.339-2.028-3.678,0.65-5.224l13.776-7.954
				c2.678-1.546,6.729-1.714,9.049-0.375l152.435,88.178c2.319,1.339,2.028,3.678-0.65,5.224l-13.776,7.954
				C203.828,418.786,199.777,418.954,197.457,417.615z"/>
			<g>
				<g>
					<g>
						<path style="fill:#404040;" d="M212.155,402.922v2.154c-0.006,1.92-1.268,3.835-3.787,5.3
							c-5.075,2.949-13.326,2.949-18.445-0.006c-2.57-1.484-3.854-3.432-3.849-5.376v-2.154c-0.006,1.945,1.278,3.892,3.849,5.376
							c5.118,2.955,13.37,2.955,18.445,0.006C210.887,406.757,212.149,404.842,212.155,402.922z"/>
					</g>
					<g>
						<path style="fill:#737373;" d="M208.297,397.538c5.118,2.955,5.145,7.735,0.07,10.684c-5.075,2.949-13.326,2.949-18.445-0.006
							c-5.108-2.949-5.135-7.729-0.06-10.678C194.938,394.589,203.189,394.589,208.297,397.538z"/>
					</g>
					<g>
						<path style="fill:#262626;" d="M202.902,400.637c2.111,1.219,2.122,3.19,0.029,4.406c-2.093,1.216-5.496,1.216-7.607-0.003
							c-2.107-1.216-2.118-3.187-0.025-4.404C197.392,399.421,200.795,399.421,202.902,400.637z"/>
					</g>
					<path style="fill:#262626;" d="M212.152,402.928v2.153c0,1.914-1.268,3.829-3.79,5.291c-2.548,1.488-5.899,2.225-9.249,2.212
						v-2.153c3.35,0.013,6.701-0.724,9.249-2.212C210.884,406.757,212.152,404.843,212.152,402.928z"/>
				</g>
				<g>
					<g style="enable-background:new    ;">
						<g>
							<path style="fill:#404040;" d="M203.913,300.217v102.446c-0.002,0.706-0.466,1.411-1.394,1.95
								c-1.867,1.085-4.903,1.085-6.786-0.002c-0.946-0.546-1.418-1.263-1.416-1.978V300.187c-0.002,0.715,0.47,1.432,1.416,1.978
								c1.883,1.087,4.919,1.087,6.786,0.002C203.446,301.629,203.911,300.924,203.913,300.217z"/>
						</g>
						<path style="fill:#262626;" d="M203.909,300.219V402.66c0,0.709-0.458,1.417-1.395,1.951
							c-0.938,0.545-2.169,0.817-3.401,0.817V302.977c1.232,0.011,2.464-0.262,3.401-0.807
							C203.451,301.625,203.909,300.927,203.909,300.219z"/>
						<g>
							<path style="fill:#737373;" d="M202.493,298.237c1.883,1.087,1.893,2.846,0.026,3.931c-1.867,1.085-4.903,1.085-6.786-0.002
								c-1.879-1.085-1.889-2.844-0.022-3.929C197.578,297.151,200.614,297.151,202.493,298.237z"/>
						</g>
					</g>
				</g>
				<g>
					<g style="enable-background:new    ;">
						<g>
							<path style="fill:#404040;" d="M202.621,294.299v5.249c-0.002,0.516-0.341,1.031-1.018,1.425
								c-1.364,0.793-3.583,0.793-4.959-0.001c-0.691-0.399-1.036-0.922-1.035-1.445v-5.249c-0.001,0.523,0.344,1.046,1.035,1.445
								c1.376,0.794,3.595,0.794,4.959,0.001C202.28,295.33,202.619,294.815,202.621,294.299z"/>
						</g>
						<g>
							<path style="fill:#737373;" d="M201.583,292.852c1.376,0.795,1.383,2.08,0.019,2.872c-1.364,0.793-3.583,0.793-4.959-0.001
								c-1.373-0.793-1.38-2.078-0.016-2.871C197.992,292.059,200.21,292.059,201.583,292.852z"/>
						</g>
					</g>
				</g>
				<path style="fill:#262626;" d="M202.623,294.299v5.254c0,0.512-0.338,1.025-1.025,1.417c-0.687,0.403-1.581,0.599-2.485,0.599
					v-5.254c0.905,0,1.799-0.196,2.485-0.589C202.285,295.335,202.623,294.812,202.623,294.299z"/>
			</g>
			<g>
				<g>
					<g>
						<path style="fill:#404040;" d="M78.262,325.553v2.154c-0.005,1.919-1.267,3.835-3.787,5.3
							c-5.075,2.949-13.327,2.949-18.445-0.006c-2.57-1.484-3.854-3.432-3.849-5.376v-2.154c-0.006,1.945,1.278,3.892,3.849,5.376
							c5.118,2.955,13.37,2.955,18.445,0.006C76.994,329.389,78.256,327.473,78.262,325.553z"/>
					</g>
					<g>
						<path style="fill:#737373;" d="M74.404,320.169c5.118,2.955,5.145,7.735,0.07,10.684c-5.075,2.949-13.327,2.949-18.445-0.006
							c-5.108-2.949-5.135-7.729-0.06-10.678C61.044,317.22,69.296,317.22,74.404,320.169z"/>
					</g>
					<g>
						<path style="fill:#262626;" d="M69.008,323.268c2.111,1.219,2.122,3.19,0.029,4.406c-2.093,1.216-5.496,1.216-7.607-0.002
							c-2.107-1.216-2.118-3.187-0.025-4.404C63.499,322.052,66.902,322.052,69.008,323.268z"/>
					</g>
					<path style="fill:#262626;" d="M78.258,325.559v2.153c0,1.915-1.268,3.829-3.79,5.291c-2.548,1.488-5.899,2.225-9.249,2.212
						v-2.153c3.35,0.013,6.701-0.724,9.249-2.212C76.991,329.388,78.258,327.474,78.258,325.559z"/>
				</g>
				<g>
					<g style="enable-background:new    ;">
						<g>
							<path style="fill:#404040;" d="M70.019,222.849v102.446c-0.002,0.706-0.466,1.411-1.393,1.95
								c-1.867,1.085-4.903,1.085-6.786-0.002c-0.946-0.546-1.418-1.263-1.416-1.978V222.818c-0.002,0.715,0.47,1.432,1.416,1.978
								c1.883,1.087,4.919,1.087,6.786,0.002C69.553,224.26,70.017,223.555,70.019,222.849z"/>
						</g>
						<path style="fill:#262626;" d="M70.016,222.85v102.442c0,0.708-0.458,1.417-1.395,1.951c-0.937,0.545-2.169,0.818-3.401,0.818
							V225.608c1.232,0.011,2.464-0.262,3.401-0.807C69.558,224.256,70.016,223.558,70.016,222.85z"/>
						<g>
							<path style="fill:#737373;" d="M68.6,220.868c1.883,1.087,1.893,2.846,0.026,3.931c-1.867,1.085-4.903,1.085-6.786-0.002
								c-1.879-1.085-1.889-2.844-0.022-3.929C63.684,219.783,66.721,219.783,68.6,220.868z"/>
						</g>
					</g>
				</g>
				<g>
					<g style="enable-background:new    ;">
						<g>
							<path style="fill:#404040;" d="M68.727,216.93v5.249c-0.001,0.516-0.341,1.031-1.018,1.425
								c-1.364,0.793-3.583,0.793-4.959-0.002c-0.691-0.399-1.036-0.923-1.035-1.445v-5.249c-0.001,0.523,0.344,1.046,1.035,1.445
								c1.376,0.794,3.595,0.794,4.959,0.002C68.386,217.962,68.726,217.447,68.727,216.93z"/>
						</g>
						<g>
							<path style="fill:#737373;" d="M67.69,215.483c1.376,0.794,1.383,2.079,0.019,2.872c-1.364,0.793-3.583,0.793-4.959-0.002
								c-1.373-0.793-1.381-2.078-0.016-2.871C64.098,214.69,66.317,214.69,67.69,215.483z"/>
						</g>
					</g>
				</g>
				<path style="fill:#262626;" d="M68.729,216.93v5.254c0,0.512-0.338,1.025-1.025,1.417c-0.687,0.403-1.581,0.6-2.485,0.6v-5.254
					c0.905,0,1.799-0.196,2.485-0.589C68.391,217.966,68.729,217.443,68.729,216.93z"/>
			</g>
			<g>
				<g>
					<g style="enable-background:new    ;">
						<path style="fill:#D9D9D9;" d="M207.739,322.166l-0.076,26.781c-0.004,1.178-0.419,2.005-1.089,2.395l5.893-3.425
							c0.67-0.389,1.086-1.217,1.089-2.395l0.076-26.781L207.739,322.166z"/>
						<path style="fill:#F2F2F2;" d="M209.9,312.276L54.684,222.662c-1.04-0.6-1.983-0.656-2.664-0.26l-5.893,3.425
							c0.681-0.396,1.624-0.34,2.664,0.26l155.216,89.614c2.067,1.193,3.739,4.09,3.732,6.465l5.893-3.425
							C213.639,316.366,211.967,313.47,209.9,312.276z"/>
						<g>
							<path style="fill:#E6E6E6;" d="M204.007,315.701c2.067,1.193,3.739,4.09,3.732,6.465l-0.076,26.781
								c-0.007,2.375-1.69,3.326-3.757,2.132L48.69,261.465c-2.067-1.193-3.739-4.081-3.733-6.456l0.076-26.781
								c0.007-2.375,1.69-3.334,3.757-2.141L204.007,315.701z"/>
						</g>
					</g>
				</g>
				<g>
					<g>
						<polygon style="fill:#FF3D44;" points="72.132,239.563 44.957,254.124 45.005,237.831 57.511,231.13 						"/>
						<polygon style="fill:#FF3D44;" points="98.567,254.829 66.733,271.887 52.136,263.453 83.97,246.396 						"/>
						<polygon style="fill:#FF3D44;" points="125.013,270.095 93.179,287.152 78.582,278.719 110.416,261.661 						"/>
						<polygon style="fill:#FF3D44;" points="151.46,285.361 119.626,302.431 105.017,293.985 136.851,276.927 						"/>
						<polygon style="fill:#FF3D44;" points="177.907,300.627 146.073,317.697 131.464,309.251 163.298,292.193 						"/>
						<path style="fill:#FF3D44;" d="M204.329,315.905l-31.81,17.058l-14.609-8.433l31.834-17.058l14.263,8.23
							C204.114,315.761,204.222,315.833,204.329,315.905z"/>
						<polygon style="fill:#FF3D44;" points="207.722,327.276 207.674,343.546 198.954,348.228 184.369,339.795 						"/>
					</g>
				</g>
				<g>
					<polygon style="fill:#FF999D;" points="78.093,236.171 72.156,239.575 57.511,231.13 63.424,227.713 					"/>
					<polygon style="fill:#FF999D;" points="104.527,251.436 98.603,254.841 83.946,246.384 89.859,242.967 					"/>
					<polygon style="fill:#FF999D;" points="130.962,266.702 125.037,270.107 110.381,261.65 116.293,258.233 					"/>
					<polygon style="fill:#FF999D;" points="157.397,281.968 151.472,285.373 136.815,276.915 142.74,273.499 					"/>
					<polygon style="fill:#FF999D;" points="183.831,297.222 177.895,300.627 163.25,292.169 169.163,288.753 					"/>
					<path style="fill:#FF999D;" d="M210.254,312.5l-5.937,3.404c-0.107-0.072-0.203-0.143-0.311-0.203l-14.31-8.266l5.913-3.417
						l14.286,8.254C210.015,312.345,210.135,312.417,210.254,312.5z"/>
				</g>
				<polygon style="fill:#CC0007;" points="213.623,323.896 213.563,340.213 207.674,343.605 207.722,327.3 				"/>
			</g>
			<g>
				<polygon style="fill:#E6C1C2;" points="171.131,332.174 100.877,291.619 118.745,266.504 153.453,286.538 				"/>
			</g>
			<polygon style="fill:#E6C1C2;" points="159.372,283.124 153.459,286.541 131.361,273.783 137.273,270.367 			"/>
		</g>
		<g>
			<g>
				<g style="enable-background:new    ;">
					<g>
						<path style="fill:#FFAA00;" d="M163.358,334.026l-7.023,4.082c0.656-0.382,0.879-1.474,0.352-2.833l7.023-4.082
							C164.237,332.552,164.014,333.644,163.358,334.026z"/>
					</g>
					<g>
						<path style="fill:#FFAA00;" d="M118.964,244.232l7.023-4.082c0.424-0.246,0.987-0.166,1.549,0.159l-7.023,4.081
							C119.951,244.065,119.388,243.985,118.964,244.232z"/>
					</g>
					<g>
						<polygon style="fill:#FFAA00;" points="122.396,246.733 129.419,242.651 163.709,331.192 156.686,335.274 						"/>
					</g>
					<g>
						<path style="fill:#FFAA00;" d="M120.514,244.39l7.023-4.081c0.735,0.424,1.467,1.266,1.882,2.343l-7.023,4.082
							C121.981,245.656,121.248,244.814,120.514,244.39z"/>
					</g>
					<g>
						<path style="fill:#FFEA00;" d="M120.514,244.39c0.734,0.424,1.467,1.266,1.882,2.343l34.29,88.541
							c0.838,2.159-0.217,3.646-1.896,2.677l-68.969-39.819c-1.686-0.974-2.722-3.668-1.882-4.858l34.679-48.722
							C119.042,243.959,119.779,243.966,120.514,244.39z"/>
					</g>
					<g>
						<path style="fill:#FF3D44;" d="M120.495,248.736c0.666,0.385,1.331,1.148,1.707,2.125l31.104,80.315
							c0.76,1.959-0.197,3.307-1.719,2.428l-62.561-36.12c-1.529-0.883-2.469-3.327-1.707-4.407l31.457-44.195
							C119.16,248.345,119.828,248.351,120.495,248.736z"/>
					</g>
					<g>
						<path style="fill:#FFEA00;" d="M120.48,252.193c0.612,0.353,1.222,1.055,1.568,1.952l28.57,73.771
							c0.698,1.799-0.181,3.038-1.579,2.23L91.574,296.97c-1.405-0.811-2.268-3.056-1.568-4.048l28.894-40.595
							C119.254,251.834,119.868,251.84,120.48,252.193z"/>
					</g>
				</g>
			</g>
			<g>
				<path d="M120.893,298.022l-2.239-1.293c-0.709-0.409-1.284-1.508-1.284-2.453v-29.66c0-0.945,0.575-1.38,1.284-0.971
					l2.239,1.293c0.709,0.409,1.284,1.508,1.284,2.453v29.66C122.177,297.997,121.602,298.431,120.893,298.022z"/>
				<path d="M122.642,306.634c0,1.818-1.284,2.551-2.869,1.636c-1.585-0.915-2.869-3.13-2.869-4.948c0-1.818,1.284-2.55,2.869-1.636
					C121.357,302.601,122.642,304.816,122.642,306.634z"/>
			</g>
		</g>
	</g>
	<g>
		<path style="fill:#F2F2F2;" d="M334.726,346.122l29.662-17.09c0.992-0.572,2.491-0.634,3.35-0.139l11.775,6.772l102.382-58.96
			l-12.76-7.338c-0.858-0.496-0.751-1.361,0.241-1.934l29.662-17.09c0.991-0.572,2.491-0.634,3.349-0.139l34.321,19.737
			c0.859,0.496,0.751,1.361-0.24,1.934l-29.662,17.09c-0.991,0.572-2.491,0.634-3.349,0.139l-5.117-2.943l-102.382,58.96
			l6.102,3.509c0.858,0.496,0.751,1.361-0.241,1.934l-29.662,17.09c-0.991,0.572-2.491,0.635-3.349,0.139l-34.321-19.737
			C333.627,347.56,333.735,346.694,334.726,346.122z"/>
		<g>
			<g style="enable-background:new    ;">
				<path style="fill:#808080;" d="M496.703,252.987c0.243-0.14,0.506-0.272,0.786-0.393l15.148-6.529l0.028,9.958l-15.148,6.529
					c-0.28,0.121-0.542,0.252-0.786,0.393c-1.347,0.777-2.119,1.836-2.115,3.075l-0.028-9.958
					C494.584,254.822,495.357,253.764,496.703,252.987z"/>
				<path style="fill:#808080;" d="M498.495,274.62c8.268,0,14.214-1.875,18.455-4.323c7.979-4.606,9.821-10.911,9.918-11.243
					l0.028,9.958c-0.097,0.332-1.939,6.637-9.918,11.243c-4.24,2.448-10.187,4.323-18.455,4.323c-3.612,0-7.067,0.876-9.629,2.355
					l-0.028-9.958C491.428,275.497,494.883,274.62,498.495,274.62z"/>
				<g>
					<polygon style="fill:#808080;" points="401.046,327.679 401.074,337.637 488.894,286.934 488.866,276.976 					"/>
				</g>
				<path style="fill:#C7C7C7;" d="M359.605,332.14c1.486-0.858,3.559-1.307,5.686-1.212c4.932,0.225,9.291,1.32,12.708,3.124
					c1.558,0.821,2.394,1.962,2.397,3.122l0.028,9.958c-0.003-1.16-0.839-2.301-2.397-3.122c-3.417-1.805-7.776-2.899-12.708-3.124
					c-2.127-0.095-4.199,0.354-5.686,1.212c-0.243,0.141-0.471,0.292-0.681,0.454l-0.028-9.958
					C359.134,332.432,359.362,332.281,359.605,332.14z"/>
				<g>
					<polygon style="fill:#808080;" points="347.603,341.347 347.631,351.305 358.953,342.552 358.925,332.594 					"/>
				</g>
				<path style="fill:#C7C7C7;" d="M344.895,336.91c0.642,2.792,2.604,4.355,2.708,4.437l0.028,9.958
					c-0.103-0.082-2.066-1.645-2.708-4.437c-0.121-0.526-0.18-1.048-0.182-1.564l-0.028-9.958
					C344.715,335.862,344.774,336.384,344.895,336.91z"/>
				<g>
					<path style="fill:#DEDEDE;" d="M377.999,334.052c2.451,1.292,3.115,3.374,1.562,5.078l-9.579,10.502
						c0.573-0.055,11.463-1.101,19.443-5.708c4.24-2.448,7.497-5.887,7.524-10.676c0.012-2.092,1.536-4.091,4.098-5.57l87.82-50.703
						c2.562-1.479,6.017-2.355,9.629-2.355c8.268,0,14.214-1.875,18.455-4.323c7.979-4.607,9.821-10.912,9.918-11.243l-18.162,5.514
						c-2.947,0.894-6.545,0.506-8.768-0.918c-3.098-1.988-4.974-4.517-5.323-7.194c-0.186-1.409,0.601-2.611,2.088-3.469
						c0.243-0.141,0.506-0.272,0.786-0.393l15.148-6.529c-0.142-0.06-2.84-1.198-7.651-1.583c-6.728-0.532-13.132,0.891-17.64,3.494
						c-3.238,1.869-5.498,4.348-6.196,7.147l-1.982,7.981c-0.428,1.732-1.819,3.336-3.961,4.572l-90.172,52.061
						c-2.142,1.237-4.915,2.037-7.906,2.279l-13.79,1.126c-4.833,0.394-9.116,1.694-12.354,3.563
						c-4.506,2.602-6.985,6.307-6.088,10.206c0.642,2.792,2.604,4.355,2.708,4.437l11.322-8.753c0.21-0.162,0.437-0.313,0.68-0.454
						c1.486-0.858,3.559-1.307,5.686-1.212C370.223,331.153,374.582,332.248,377.999,334.052z"/>
				</g>
				<polygon style="fill:#C7C7C7;" points="396.641,324.451 484.69,273.614 478.966,270.309 390.917,321.146 				"/>
				<polygon style="fill:#808080;" points="478.966,271.744 392.159,321.864 390.917,321.146 478.966,270.309 484.69,273.614 
					483.447,274.331 				"/>
				<g>
					<path style="fill:#808080;" d="M369.981,349.633l0.028,9.958c0.573-0.055,11.463-1.101,19.443-5.708
						c4.24-2.448,7.496-5.887,7.523-10.676c0.012-2.092,1.536-4.091,4.098-5.57l-0.028-9.958c-2.562,1.479-4.086,3.478-4.098,5.57
						c-0.027,4.788-3.284,8.228-7.524,10.676C381.445,348.531,370.555,349.578,369.981,349.633z"/>
				</g>
			</g>
		</g>
	</g>
	<g>
		<path style="fill:#F2F2F2;" d="M492.889,229.465l-62.022-35.809c-2.899-1.673-2.535-4.596,0.812-6.529l28.225-16.296
			c3.347-1.932,8.409-2.142,11.308-0.469l62.022,35.809c2.899,1.673,2.535,4.596-0.812,6.528l-28.225,16.296
			C500.851,230.929,495.788,231.138,492.889,229.465z"/>
		<g>
			<path style="fill:#595959;" d="M529.98,187.689h-16.445v6.53l-41.26-23.821c-2.614-1.509-7.181-1.32-10.199,0.423l-2.202,1.271
				v-0.546h-25.752v17.635h0.032c0.12,0.836,0.687,1.622,1.733,2.226l55.941,32.298c2.614,1.509,7.18,1.32,10.199-0.423
				l25.457-14.698c1.602-0.925,2.438-2.101,2.486-3.227h0.011V187.689z"/>
			<path style="fill:#333333;" d="M529.977,187.692v17.667h-0.01c-0.043,1.122-0.887,2.298-2.479,3.228l-25.458,14.695
				c-1.251,0.716-2.769,1.176-4.307,1.347v-39.534l15.807,9.127v-6.53H529.977z"/>
			<path style="fill:#333333;" d="M491.827,206.426l-55.941-32.298c-2.614-1.509-2.286-4.145,0.732-5.888l25.457-14.698
				c3.019-1.743,7.585-1.932,10.199-0.423l55.941,32.298c2.615,1.509,2.286,4.146-0.732,5.889l-25.457,14.698
				C499.007,207.746,494.441,207.936,491.827,206.426z"/>
		</g>
		<g>
			<path style="fill:#FFC800;" d="M529.98,168.656h-16.445v6.531l-41.26-23.822c-2.614-1.509-7.181-1.32-10.199,0.423l-2.202,1.271
				v-0.546h-25.752v17.635h0.032c0.12,0.836,0.687,1.622,1.733,2.226l55.941,32.298c2.614,1.509,7.18,1.32,10.199-0.423
				l25.457-14.698c1.602-0.925,2.438-2.1,2.486-3.227h0.011V168.656z"/>
			<path style="fill:#FFAA00;" d="M529.977,168.659v17.667h-0.01c-0.043,1.122-0.887,2.298-2.479,3.228l-25.458,14.696
				c-1.251,0.716-2.769,1.175-4.307,1.347v-39.534l15.807,9.127v-6.53H529.977z"/>
			<path style="fill:#FFEA00;" d="M491.827,187.393l-55.941-32.298c-2.614-1.509-2.286-4.146,0.732-5.889l25.457-14.697
				c3.019-1.743,7.585-1.933,10.199-0.423l55.941,32.298c2.615,1.509,2.286,4.145-0.732,5.888l-25.457,14.698
				C499.007,188.713,494.441,188.902,491.827,187.393z"/>
			<path style="fill:#FFF27A;" d="M490.707,182.204l-49.536-28.599c-2.315-1.336-2.024-3.671,0.648-5.214l22.542-13.014
				c2.673-1.544,6.717-1.711,9.032-0.375l49.535,28.599c2.315,1.336,2.025,3.671-0.648,5.214l-22.542,13.015
				C497.066,183.373,493.022,183.54,490.707,182.204z"/>
		</g>
		<g>
			<path style="fill:#FFFDE7;" d="M454.331,182.139l-10.022-5.845c-0.176-0.105-0.419-0.091-0.689,0.064
				c-0.232,0.134-0.444,0.351-0.611,0.604c-0.22,0.333-0.359,0.729-0.359,1.083c0,0.308,0.107,0.527,0.279,0.63l0,0l10.023,5.846
				l0.022-0.038c0.145,0.015,0.312-0.025,0.49-0.128c0.307-0.177,0.58-0.5,0.757-0.86c0.133-0.27,0.213-0.561,0.213-0.828
				c0-0.202-0.046-0.366-0.127-0.484L454.331,182.139z"/>
			<path style="fill:#B0918F;" d="M453.655,182.211c-0.536,0.309-0.97,1.065-0.97,1.687c0,0.622,0.435,0.876,0.97,0.567
				c0.536-0.309,0.97-1.065,0.97-1.688C454.625,182.156,454.191,181.901,453.655,182.211z"/>
		</g>
		<g>
			<path style="fill:#FFFDE7;" d="M485.191,199.974l-10.022-5.845c-0.176-0.105-0.419-0.091-0.689,0.064
				c-0.232,0.134-0.444,0.351-0.611,0.605c-0.22,0.333-0.359,0.729-0.359,1.083c0,0.308,0.107,0.526,0.279,0.63l0,0l10.023,5.845
				l0.022-0.038c0.145,0.015,0.311-0.025,0.49-0.129c0.307-0.177,0.579-0.499,0.757-0.86c0.133-0.27,0.213-0.561,0.213-0.827
				c0-0.203-0.046-0.366-0.127-0.484L485.191,199.974z"/>
			<path style="fill:#B0918F;" d="M484.516,200.046c-0.536,0.309-0.97,1.065-0.97,1.687c0,0.623,0.434,0.876,0.97,0.567
				c0.535-0.309,0.97-1.065,0.97-1.687C485.486,199.991,485.051,199.737,484.516,200.046z"/>
		</g>
		<g>
			<polygon style="fill:#333333;" points="467.343,153.414 472.791,150.258 472.791,142.771 467.343,145.927 			"/>
			<polygon style="fill:#4D4D4D;" points="487.41,149.322 482.484,146.478 474.479,141.857 469.548,139.01 466.062,140.998 
				466.062,140.998 463.761,142.311 463.761,151.346 467.343,153.414 467.343,145.927 470.993,143.845 485.975,152.495 
				489.628,158.79 489.628,166.28 493.21,168.348 493.21,159.314 			"/>
			<polygon style="fill:#333333;" points="493.21,168.348 498.658,165.192 498.658,156.157 493.21,159.314 			"/>
			
				<rect x="489.886" y="146.963" transform="matrix(0.8652 -0.5014 0.5014 0.8652 -10.1338 267.7792)" style="fill:#666666;" width="6.296" height="11.552"/>
			<polygon style="fill:#A3A3A3;" points="469.548,139.01 474.996,135.854 492.858,146.166 487.41,149.322 			"/>
			<polygon style="fill:#311811;" points="463.761,142.311 469.548,139.01 474.996,135.854 469.208,139.155 			"/>
		</g>
	</g>
	<g>
		<g>
			<path style="fill:#F2F2F2;" d="M478.628,360.81c1.757,1.014,2.451,2.496,1.815,3.881l-4.454,9.748
				c-0.633,1.388-2.495,2.469-4.888,2.841l-16.814,2.612c-2.39,0.373-4.949-0.025-6.706-1.039l-12.36-7.136
				c-1.757-1.014-2.448-2.494-1.815-3.881l4.454-9.748c0.633-1.388,2.495-2.469,4.888-2.841l16.814-2.612
				c2.393-0.371,4.949,0.025,6.706,1.039L478.628,360.81z"/>
		</g>
		<g>
			<g style="enable-background:new    ;">
				<path style="fill:#808080;" d="M477.848,345.859l-3.963,8.672c-0.563,1.234-2.22,2.197-4.349,2.527l-14.959,2.324l-0.048,16.968
					l14.959-2.324c2.129-0.33,3.785-1.293,4.349-2.527l3.963-8.672c0.138-0.3,0.206-0.606,0.207-0.909l0.048-16.968
					C478.054,345.253,477.986,345.559,477.848,345.859z"/>
				<path style="fill:#999999;" d="M448.611,358.458l-10.996-6.349c-1.183-0.683-1.823-1.603-1.82-2.544l-0.048,16.968
					c-0.003,0.942,0.637,1.862,1.82,2.544l10.996,6.349c1.563,0.902,3.84,1.256,5.966,0.924l0.048-16.968
					C452.451,359.714,450.174,359.361,448.611,358.458z"/>
				<g>
					<path style="fill:#D9D9D9;" d="M476.233,342.406c1.563,0.902,2.181,2.22,1.615,3.453l-3.963,8.672
						c-0.563,1.234-2.22,2.197-4.349,2.527l-14.959,2.324c-2.126,0.332-4.403-0.022-5.966-0.924l-10.996-6.349
						c-1.563-0.902-2.178-2.218-1.615-3.453l3.963-8.672c0.563-1.234,2.219-2.197,4.349-2.527l14.959-2.324
						c2.129-0.33,4.403,0.022,5.966,0.924L476.233,342.406z"/>
				</g>
			</g>
		</g>
		<path style="fill:#A3A3A3;" d="M467.396,353.092c-5.512,3.182-14.476,3.166-20.023-0.036c-5.546-3.202-5.574-8.378-0.063-11.56
			c5.512-3.182,14.476-3.166,20.022,0.036C472.879,344.734,472.907,349.91,467.396,353.092z"/>
		<path style="fill:#808080;" d="M447.31,344.815c5.512-3.182,14.476-3.166,20.022,0.036c2.047,1.181,3.339,2.632,3.882,4.152
			c0.933-2.609-0.361-5.437-3.882-7.47c-5.546-3.202-14.511-3.218-20.022-0.036c-3.478,2.008-4.748,4.81-3.819,7.409
			C444.027,347.405,445.298,345.976,447.31,344.815z"/>
		<path style="fill:#808080;" d="M470.745,350.003c-0.344,0.575-0.801,1.131-1.371,1.652c-0.57-0.534-1.249-1.032-2.041-1.489
			c-5.548-3.199-14.512-3.217-20.024-0.036c-0.765,0.444-1.425,0.928-1.978,1.439c-0.57-0.53-1.027-1.091-1.366-1.67
			c0.674-1.127,1.787-2.186,3.344-3.086c5.512-3.181,14.476-3.167,20.024,0.036C468.925,347.768,470.061,348.849,470.745,350.003z"
			/>
		<path style="fill:#808080;" d="M468.102,352.651c-0.226,0.154-0.462,0.303-0.706,0.443c-0.819,0.471-1.71,0.874-2.661,1.204
			c-4.516-1.616-10.25-1.633-14.766-0.054c-0.923-0.33-1.797-0.724-2.598-1.186c-0.271-0.154-0.525-0.317-0.769-0.484
			c0.226-0.154,0.461-0.303,0.706-0.444c5.512-3.181,14.476-3.168,20.024,0.036C467.604,352.32,467.857,352.483,468.102,352.651z"/>
	</g>
	<g>
		<g>
			<path style="fill:#F2F2F2;" d="M516.631,337.008c1.143,0.66,1.595,1.624,1.181,2.526l-2.899,6.344
				c-0.412,0.903-1.623,1.607-3.181,1.849l-10.943,1.7c-1.555,0.243-3.221-0.016-4.364-0.676l-8.044-4.644
				c-1.143-0.66-1.593-1.623-1.181-2.526l2.899-6.344c0.412-0.903,1.624-1.607,3.181-1.849l10.943-1.7
				c1.557-0.242,3.221,0.016,4.364,0.676L516.631,337.008z"/>
		</g>
		<g>
			<g style="enable-background:new    ;">
				<path style="fill:#808080;" d="M516.123,327.279l-2.579,5.644c-0.367,0.803-1.444,1.43-2.83,1.645l-9.735,1.512l-0.031,11.043
					l9.735-1.512c1.385-0.215,2.463-0.841,2.83-1.645l2.579-5.644c0.09-0.195,0.134-0.394,0.134-0.591l0.031-11.043
					C516.257,326.884,516.213,327.083,516.123,327.279z"/>
				<path style="fill:#999999;" d="M497.097,335.478l-7.156-4.132c-0.77-0.444-1.186-1.043-1.184-1.656l-0.031,11.043
					c-0.002,0.613,0.415,1.211,1.184,1.656l7.156,4.132c1.017,0.587,2.499,0.818,3.883,0.601l0.031-11.043
					C499.596,336.295,498.114,336.065,497.097,335.478z"/>
				<g>
					<path style="fill:#D9D9D9;" d="M515.073,325.031c1.017,0.587,1.419,1.445,1.051,2.247l-2.579,5.644
						c-0.367,0.803-1.444,1.43-2.83,1.645l-9.735,1.512c-1.384,0.216-2.866-0.014-3.883-0.601l-7.156-4.132
						c-1.017-0.587-1.417-1.444-1.051-2.247l2.579-5.644c0.366-0.803,1.444-1.43,2.83-1.645l9.735-1.512
						c1.386-0.215,2.866,0.014,3.883,0.601L515.073,325.031z"/>
				</g>
			</g>
		</g>
		<path style="fill:#A3A3A3;" d="M509.321,331.986c-3.587,2.071-9.421,2.06-13.03-0.023c-3.609-2.084-3.628-5.452-0.041-7.523
			c3.587-2.071,9.421-2.06,13.03,0.024C512.89,326.547,512.908,329.915,509.321,331.986z"/>
		<path style="fill:#808080;" d="M496.25,326.599c3.587-2.071,9.421-2.061,13.03,0.023c1.332,0.769,2.173,1.713,2.526,2.702
			c0.607-1.698-0.235-3.538-2.526-4.861c-3.609-2.084-9.443-2.095-13.03-0.024c-2.263,1.307-3.09,3.13-2.485,4.821
			C494.114,328.284,494.94,327.355,496.25,326.599z"/>
		<path style="fill:#808080;" d="M511.501,329.975c-0.224,0.374-0.521,0.736-0.892,1.075c-0.371-0.348-0.813-0.672-1.328-0.969
			c-3.611-2.082-9.444-2.094-13.031-0.023c-0.498,0.289-0.928,0.604-1.287,0.936c-0.371-0.344-0.668-0.71-0.889-1.087
			c0.439-0.733,1.163-1.422,2.176-2.009c3.587-2.07,9.421-2.061,13.031,0.024C510.317,328.521,511.056,329.225,511.501,329.975z"/>
		<path style="fill:#808080;" d="M509.781,331.698c-0.147,0.1-0.3,0.197-0.459,0.289c-0.533,0.306-1.113,0.568-1.732,0.783
			c-2.939-1.051-6.67-1.063-9.609-0.035c-0.601-0.215-1.169-0.471-1.69-0.771c-0.177-0.1-0.342-0.206-0.501-0.315
			c0.147-0.1,0.3-0.197,0.46-0.289c3.587-2.07,9.421-2.061,13.031,0.024C509.457,331.483,509.622,331.589,509.781,331.698z"/>
	</g>
	<g>
		<g>
			<g style="enable-background:new    ;">
				<g>
					<path style="fill:#6D64FF;" d="M371.896,98.346l-4.013,2.332c1.456,0.11,2.63-0.187,3.577-0.737l4.013-2.332
						C374.527,98.159,373.353,98.455,371.896,98.346z"/>
					<path style="fill:#6D64FF;" d="M382.666,104.912l4.013-2.332c1.407-0.818,2.732-2.188,3.87-4.312l-4.013,2.332
						C385.397,102.723,384.073,104.094,382.666,104.912z"/>
					<path style="fill:#6D64FF;" d="M412.422,73.129l-35.266-20.427c-1.777-1.026-3.39-1.121-4.554-0.444l-4.013,2.332
						c1.165-0.677,2.778-0.582,4.555,0.444l35.266,20.427c3.535,2.041,6.389,6.983,6.377,11.035l-0.052,23.096
						c-0.006,2.012-0.716,3.428-1.864,4.095l4.013-2.332c1.147-0.667,1.858-2.083,1.863-4.094l0.052-23.096
						C418.81,80.112,415.957,75.17,412.422,73.129z"/>
				</g>
				<g>
					<path style="fill:#27218A;" d="M408.409,75.461c3.535,2.041,6.389,6.983,6.377,11.035l-0.052,23.096
						c-0.012,4.052-2.884,5.689-6.419,3.648l-21.779-12.64c-3.969,7.405-10.193,5.651-14.346,3.253
						c-2.54-1.467-4.218-3.09-4.306-3.175c4.815,0.363,6.546-3.72,7.174-6.705l-2.009-1.16c-3.526-2.036-6.389-6.983-6.377-11.035
						l0.052-23.096c0.012-4.052,2.893-5.683,6.419-3.647L408.409,75.461z"/>
				</g>
				<g>
					<path style="fill:#FFFFFF;" d="M401.638,93.3l-2.908-1.282c-0.213,0.839-0.542,1.558-0.973,2.144l1.833,3.665l-2.722,1.569
						l-2.296-3.396c-0.727,0.078-1.519,0.008-2.358-0.227l-0.32,3.145l-3.862-2.203l-0.336-3.517
						c-0.841-0.727-1.635-1.559-2.363-2.469l-2.286,0.785l-2.738-4.684l1.82-1.58c-0.433-1.079-0.767-2.177-0.984-3.261l-2.91-2.037
						l-0.01-4.421l2.909,1.286c0.214-0.838,0.544-1.557,0.974-2.143l-1.832-3.664l2.725-1.567l2.294,3.399
						c0.722-0.077,1.511-0.007,2.346,0.225l0.319-3.146l3.861,2.199l0.339,3.521c0.841,0.726,1.635,1.556,2.363,2.466l2.286-0.786
						l2.739,4.683l-1.819,1.581c0.433,1.079,0.767,2.175,0.986,3.263l2.91,2.034L401.638,93.3z M389.944,88.851
						c2.138,1.218,3.865,0.22,3.858-2.227c-0.007-2.449-1.746-5.42-3.884-6.638c-2.137-1.217-3.863-0.22-3.856,2.229
						C386.069,84.662,387.808,87.634,389.944,88.851L389.944,88.851z"/>
				</g>
			</g>
		</g>
	</g>
</g>
</svg>
