<?xml version="1.0" standalone="no"?>
<!DOCTYPE svg PUBLIC "-//W3C//DTD SVG 20010904//EN"
 "http://www.w3.org/TR/2001/REC-SVG-20010904/DTD/svg10.dtd">
<svg version="1.0" xmlns="http://www.w3.org/2000/svg"
 width="461.000000pt" height="136.000000pt" viewBox="0 0 461.000000 136.000000"
 preserveAspectRatio="xMidYMid meet">

<g transform="translate(0.000000,136.000000) scale(0.100000,-0.100000)"
fill="#000000" stroke="none">
<path d="M2166 1104 c-5 -14 -4 -15 9 -4 17 14 19 20 6 20 -5 0 -12 -7 -15
-16z"/>
<path d="M2207 1113 c-4 -3 -7 -11 -7 -17 0 -6 5 -5 12 2 6 6 9 14 7 17 -3 3
-9 2 -12 -2z"/>
<path d="M2247 1113 c-4 -3 -7 -11 -7 -17 0 -6 5 -5 12 2 6 6 9 14 7 17 -3 3
-9 2 -12 -2z"/>
<path d="M2370 1090 c0 -5 5 -10 10 -10 6 0 10 5 10 10 0 6 -4 10 -10 10 -5 0
-10 -4 -10 -10z"/>
<path d="M2099 1073 c-13 -16 -12 -17 4 -4 9 7 17 15 17 17 0 8 -8 3 -21 -13z"/>
<path d="M2310 1074 c0 -8 5 -12 10 -9 6 3 10 10 10 16 0 5 -4 9 -10 9 -5 0
-10 -7 -10 -16z"/>
<path d="M2120 1065 c-7 -9 -8 -15 -2 -15 5 0 12 7 16 15 3 8 4 15 2 15 -2 0
-9 -7 -16 -15z"/>
<path d="M2156 1064 c-10 -25 1 -29 14 -5 6 12 7 21 1 21 -5 0 -12 -7 -15 -16z"/>
<path d="M2207 1073 c-4 -3 -7 -11 -7 -17 0 -6 5 -5 12 2 6 6 9 14 7 17 -3 3
-9 2 -12 -2z"/>
<path d="M2250 1064 c0 -8 5 -12 10 -9 6 3 10 10 10 16 0 5 -4 9 -10 9 -5 0
-10 -7 -10 -16z"/>
<path d="M2410 1060 c0 -5 5 -10 11 -10 5 0 7 5 4 10 -3 6 -8 10 -11 10 -2 0
-4 -4 -4 -10z"/>
<path d="M2082 1030 c-7 -11 -8 -20 -3 -20 9 0 24 30 18 36 -1 2 -8 -6 -15
-16z"/>
<path d="M2275 1039 c-4 -6 -3 -15 3 -21 6 -6 11 -4 15 6 7 18 -9 31 -18 15z"/>
<path d="M2340 1040 c0 -5 5 -10 10 -10 6 0 10 5 10 10 0 6 -4 10 -10 10 -5 0
-10 -4 -10 -10z"/>
<path d="M2117 1034 c-4 -4 -7 -14 -7 -23 0 -11 3 -12 11 -4 6 6 10 16 7 23
-2 6 -7 8 -11 4z"/>
<path d="M2161 1026 c-8 -9 -11 -19 -7 -23 9 -9 29 13 24 27 -2 8 -8 7 -17 -4z"/>
<path d="M2217 1034 c-4 -4 -7 -14 -7 -23 0 -11 3 -12 11 -4 6 6 10 16 7 23
-2 6 -7 8 -11 4z"/>
<path d="M2380 1005 c0 -8 5 -15 10 -15 6 0 10 7 10 15 0 8 -4 15 -10 15 -5 0
-10 -7 -10 -15z"/>
<path d="M2305 1000 c-8 -13 4 -32 16 -25 12 8 12 35 0 35 -6 0 -13 -4 -16
-10z"/>
<path d="M2037 983 c3 -7 9 -10 14 -7 14 8 11 21 -5 21 -8 0 -12 -6 -9 -14z"/>
<path d="M2077 993 c-9 -15 -6 -93 4 -93 5 0 7 -11 3 -24 -8 -32 12 -42 27
-15 9 18 9 25 -4 34 -10 7 -14 20 -10 33 3 13 1 22 -6 22 -7 0 -9 9 -5 25 6
24 0 34 -9 18z"/>
<path d="M2122 988 c-15 -15 -16 -38 -2 -38 6 0 8 -11 4 -25 -4 -18 -2 -25 9
-25 22 0 31 32 13 45 -9 7 -13 20 -9 33 6 25 2 27 -15 10z"/>
<path d="M2170 981 c-7 -14 -7 -22 1 -27 10 -6 28 11 29 28 0 17 -20 17 -30
-1z"/>
<path d="M2233 985 c-3 -9 -3 -18 0 -21 9 -9 27 6 27 22 0 19 -19 18 -27 -1z"/>
<path d="M2515 990 c3 -5 8 -10 11 -10 2 0 4 5 4 10 0 6 -5 10 -11 10 -5 0 -7
-4 -4 -10z"/>
<path d="M2430 971 c0 -6 5 -13 10 -16 6 -3 10 1 10 9 0 9 -4 16 -10 16 -5 0
-10 -4 -10 -9z"/>
<path d="M2345 960 c-7 -12 2 -30 16 -30 5 0 9 9 9 20 0 21 -15 27 -25 10z"/>
<path d="M2035 940 c-3 -11 -4 -29 0 -39 3 -11 -1 -26 -11 -35 -12 -13 -14
-27 -9 -66 8 -56 20 -71 31 -38 4 14 1 25 -9 33 -18 13 -13 51 9 59 9 3 13 21
11 56 -2 52 -11 64 -22 30z"/>
<path d="M2263 944 c-9 -23 11 -38 26 -20 13 16 7 36 -10 36 -5 0 -12 -7 -16
-16z"/>
<path d="M2197 943 c-4 -3 -7 -15 -7 -25 0 -26 24 -17 28 10 3 21 -8 29 -21
15z"/>
<path d="M2486 942 c-3 -6 -1 -14 5 -17 15 -10 25 3 12 16 -7 7 -13 7 -17 1z"/>
<path d="M2395 920 c-7 -12 2 -30 16 -30 5 0 9 9 9 20 0 21 -15 27 -25 10z"/>
<path d="M2310 904 c-9 -10 -10 -18 -2 -26 12 -12 32 -2 32 17 0 21 -16 26
-30 9z"/>
<path d="M2011 902 c0 -7 -4 -11 -8 -9 -5 3 -9 -9 -10 -26 -2 -30 -2 -30 13
-9 8 12 13 30 11 40 -3 9 -5 11 -6 4z"/>
<path d="M2227 904 c-15 -15 -7 -45 11 -42 9 2 17 12 17 22 0 20 -16 31 -28
20z"/>
<path d="M2550 900 c0 -5 5 -10 10 -10 6 0 10 5 10 10 0 6 -4 10 -10 10 -5 0
-10 -4 -10 -10z"/>
<path d="M2150 875 c0 -16 6 -25 15 -25 9 0 15 -10 15 -26 0 -33 33 -30 38 4
3 17 -2 22 -17 22 -16 0 -21 6 -21 25 0 16 -6 25 -15 25 -9 0 -15 -9 -15 -25z"/>
<path d="M3080 795 c0 -87 3 -105 15 -105 12 0 15 18 15 105 0 87 -3 105 -15
105 -12 0 -15 -18 -15 -105z"/>
<path d="M3170 795 l0 -105 60 0 c99 0 140 32 140 108 0 69 -51 102 -156 102
l-44 0 0 -105z m118 64 c38 -13 57 -54 43 -92 -12 -30 -45 -47 -92 -47 l-29 0
0 75 c0 72 1 75 24 75 12 0 37 -5 54 -11z"/>
<path d="M3420 795 l0 -105 75 0 c60 0 75 3 75 15 0 12 -13 15 -60 15 l-60 0
0 30 c0 29 1 30 50 30 38 0 50 4 50 15 0 11 -12 15 -51 15 -49 0 -50 1 -47 28
3 26 6 27 61 30 85 4 70 26 -21 30 l-72 3 0 -106z"/>
<path d="M3671 878 c-5 -13 -25 -58 -45 -102 -20 -43 -36 -80 -36 -82 0 -2 9
-4 20 -4 13 0 22 9 26 25 6 23 11 25 60 25 48 0 56 -3 66 -25 6 -14 19 -25 29
-25 17 0 17 5 -7 58 -14 31 -35 78 -46 105 -23 52 -52 63 -67 25z m51 -68 l17
-40 -40 0 -39 0 15 36 c8 20 15 38 15 40 0 2 3 4 8 4 4 0 15 -18 24 -40z"/>
<path d="M3810 885 c0 -11 10 -15 35 -15 l35 0 0 -90 c0 -83 1 -90 20 -90 19
0 20 7 20 90 l0 90 36 0 c24 0 34 4 32 13 -3 8 -33 13 -91 15 -73 2 -87 0 -87
-13z"/>
<path d="M4020 795 l0 -105 75 0 c60 0 75 3 75 15 0 12 -13 15 -60 15 l-60 0
0 30 c0 29 1 30 50 30 38 0 50 4 50 15 0 11 -12 15 -51 15 -49 0 -50 1 -47 28
3 26 6 27 61 30 85 4 70 26 -21 30 l-72 3 0 -106z"/>
<path d="M4265 891 c-39 -17 -60 -51 -60 -98 0 -38 5 -49 33 -74 22 -20 43
-29 67 -29 41 0 87 19 82 34 -4 11 -13 11 -67 0 -17 -4 -35 2 -53 16 -35 28
-36 72 -2 105 27 28 41 30 81 15 32 -13 52 1 30 19 -20 16 -85 23 -111 12z"/>
<path d="M2452 874 c4 -21 22 -23 26 -1 2 10 -3 17 -13 17 -10 0 -15 -6 -13
-16z"/>
<path d="M2355 860 c-8 -14 3 -30 21 -30 8 0 14 9 14 20 0 21 -24 28 -35 10z"/>
<path d="M2615 860 c3 -5 8 -10 11 -10 2 0 4 5 4 10 0 6 -5 10 -11 10 -5 0 -7
-4 -4 -10z"/>
<path d="M2264 845 c-7 -18 3 -35 22 -35 8 0 14 10 14 25 0 27 -27 35 -36 10z"/>
<path d="M2050 820 c0 -16 4 -30 9 -30 12 0 24 37 16 50 -12 20 -25 10 -25
-20z"/>
<path d="M2117 843 c-13 -13 -7 -53 8 -53 10 0 15 10 15 30 0 29 -9 38 -23 23z"/>
<path d="M2510 835 c0 -8 7 -15 15 -15 8 0 15 7 15 15 0 8 -7 15 -15 15 -8 0
-15 -7 -15 -15z"/>
<path d="M1987 752 c4 -97 6 -112 14 -106 9 5 22 -33 16 -44 -3 -4 0 -17 7
-30 11 -21 12 -20 13 15 1 21 -4 44 -10 52 -22 27 -36 85 -30 131 3 26 2 50
-3 53 -5 3 -8 -29 -7 -71z"/>
<path d="M2412 813 c4 -21 33 -25 33 -3 0 8 -8 16 -18 18 -14 3 -18 -1 -15
-15z"/>
<path d="M210 745 c0 -60 3 -75 15 -75 8 0 15 9 15 19 0 15 10 21 41 26 28 5
43 13 48 28 17 46 -13 77 -76 77 l-43 0 0 -75z m85 41 c27 -19 13 -46 -25 -46
-27 0 -30 3 -30 30 0 34 22 40 55 16z"/>
<path d="M395 808 c-28 -16 -35 -28 -35 -65 0 -66 79 -98 128 -53 64 60 -16
162 -93 118z m75 -28 c11 -11 20 -27 20 -35 0 -20 -36 -55 -57 -55 -23 0 -53
29 -53 52 0 22 34 58 55 58 8 0 24 -9 35 -20z"/>
<path d="M557 745 c14 -43 30 -75 38 -75 7 0 21 23 30 50 9 28 20 48 24 45 5
-2 14 -25 21 -50 18 -64 38 -56 67 29 12 38 21 71 19 74 -10 10 -24 -11 -36
-53 -7 -25 -16 -47 -20 -50 -4 -2 -14 21 -24 51 -10 32 -22 54 -29 51 -7 -2
-21 -28 -31 -57 l-20 -54 -19 57 c-10 32 -25 57 -32 57 -10 0 -8 -18 12 -75z"/>
<path d="M790 745 l0 -75 55 0 c65 0 74 17 13 22 -35 2 -43 7 -43 23 0 16 8
21 38 23 46 4 39 22 -9 22 -28 0 -35 4 -32 18 2 12 15 18 46 20 58 4 43 22
-19 22 l-49 0 0 -75z"/>
<path d="M930 745 c0 -60 3 -75 15 -75 8 0 15 9 15 20 0 13 7 20 20 20 11 0
25 -9 32 -20 13 -20 38 -28 38 -11 0 5 -7 14 -15 21 -14 12 -14 15 0 30 37 41
1 90 -67 90 l-38 0 0 -75z m85 41 c27 -19 13 -46 -25 -46 -27 0 -30 3 -30 30
0 34 22 40 55 16z"/>
<path d="M1090 745 l0 -75 55 0 c30 0 55 5 55 10 0 6 -21 10 -46 10 -41 0 -45
2 -42 23 2 17 11 23 36 25 43 4 41 22 -3 22 -28 0 -35 4 -35 20 0 17 7 20 40
20 22 0 40 5 40 10 0 6 -22 10 -50 10 l-50 0 0 -75z"/>
<path d="M1230 745 l0 -75 44 0 c58 0 96 29 96 75 0 46 -38 75 -96 75 l-44 0
0 -75z m108 28 c17 -24 15 -40 -9 -64 -13 -13 -30 -19 -47 -17 -23 3 -27 8
-30 42 -5 58 3 70 41 62 17 -3 38 -14 45 -23z"/>
<path d="M1460 745 l0 -76 56 3 c64 3 88 23 67 56 -7 11 -8 24 -2 34 20 37
-10 58 -83 58 l-38 0 0 -75z m98 33 c3 -15 -4 -18 -32 -18 -30 0 -36 4 -36 21
0 17 5 20 32 17 22 -2 34 -9 36 -20z m-3 -51 c25 -19 10 -37 -31 -37 -30 0
-34 3 -34 25 0 19 5 25 23 25 13 0 31 -6 42 -13z"/>
<path d="M1610 813 c0 -5 12 -26 25 -48 14 -22 25 -52 25 -67 0 -18 5 -28 15
-28 10 0 15 10 15 27 0 14 12 46 26 70 26 44 24 76 -2 38 -41 -62 -39 -61 -62
-21 -19 32 -43 48 -42 29z"/>
<path d="M2321 811 c-17 -11 -7 -41 13 -41 22 0 30 20 15 36 -9 8 -19 10 -28
5z"/>
<path d="M2231 796 c-16 -19 -7 -46 14 -46 22 0 30 29 13 46 -13 13 -16 13
-27 0z"/>
<path d="M2580 795 c0 -8 5 -15 10 -15 6 0 10 7 10 15 0 8 -4 15 -10 15 -5 0
-10 -7 -10 -15z"/>
<path d="M2077 793 c-11 -10 -8 -41 4 -49 17 -10 32 12 24 35 -6 21 -16 26
-28 14z"/>
<path d="M2144 786 c-9 -22 2 -46 21 -46 12 0 15 8 13 27 -3 30 -25 42 -34 19z"/>
<path d="M2474 779 c-10 -17 13 -36 27 -22 12 12 4 33 -11 33 -5 0 -12 -5 -16
-11z"/>
<path d="M2372 748 c2 -13 10 -23 18 -23 8 0 16 10 18 23 3 17 -2 22 -18 22
-16 0 -21 -5 -18 -22z"/>
<path d="M2640 760 c0 -5 4 -10 9 -10 6 0 13 5 16 10 3 6 -1 10 -9 10 -9 0
-16 -4 -16 -10z"/>
<path d="M2274 745 c-9 -22 22 -53 37 -38 15 15 7 47 -14 51 -9 2 -20 -4 -23
-13z"/>
<path d="M2000 731 c0 -11 5 -23 10 -26 6 -4 10 5 10 19 0 14 -4 26 -10 26 -5
0 -10 -9 -10 -19z"/>
<path d="M2046 741 c-9 -14 2 -51 15 -51 5 0 12 7 16 16 7 19 -21 51 -31 35z"/>
<path d="M2185 740 c-11 -17 5 -51 23 -48 23 4 23 52 0 56 -9 2 -19 -2 -23 -8z"/>
<path d="M2542 736 c1 -10 8 -17 13 -17 15 1 12 24 -3 29 -9 3 -13 -2 -10 -12z"/>
<path d="M2107 726 c-3 -8 1 -22 8 -33 18 -23 40 -5 30 26 -7 24 -30 28 -38 7z"/>
<path d="M2433 714 c-8 -21 13 -42 28 -27 13 13 5 43 -11 43 -6 0 -13 -7 -17
-16z"/>
<path d="M2334 695 c-4 -9 -2 -21 4 -27 15 -15 44 -1 40 19 -4 23 -36 29 -44
8z"/>
<path d="M2607 704 c-8 -8 1 -24 14 -24 5 0 9 7 9 15 0 15 -12 20 -23 9z"/>
<path d="M2026 692 c-7 -12 4 -52 15 -52 12 0 12 47 0 55 -5 3 -12 2 -15 -3z"/>
<path d="M2234 685 c-7 -17 12 -45 31 -45 18 0 27 30 14 46 -15 18 -38 18 -45
-1z"/>
<path d="M2080 666 c0 -14 5 -28 11 -32 17 -10 32 12 24 35 -9 29 -35 27 -35
-3z"/>
<path d="M2150 665 c0 -28 25 -44 42 -27 7 7 6 17 -1 31 -16 30 -41 27 -41 -4z"/>
<path d="M2504 676 c-9 -23 7 -38 26 -26 13 8 13 11 -2 26 -16 17 -18 17 -24
0z"/>
<path d="M2394 655 c-7 -18 3 -35 21 -35 21 0 28 19 15 35 -16 19 -29 19 -36
0z"/>
<path d="M2675 660 c-3 -5 -1 -10 4 -10 6 0 11 5 11 10 0 6 -2 10 -4 10 -3 0
-8 -4 -11 -10z"/>
<path d="M2294 636 c-8 -21 3 -36 27 -36 15 0 20 6 17 22 -4 27 -35 37 -44 14z"/>
<path d="M2060 623 c0 -10 5 -25 10 -33 14 -22 30 0 19 28 -10 26 -29 29 -29
5z"/>
<path d="M2125 630 c-11 -18 6 -50 26 -50 21 0 24 12 9 41 -12 21 -25 25 -35
9z"/>
<path d="M2200 622 c0 -26 27 -49 41 -35 17 17 6 48 -19 51 -16 3 -22 -2 -22
-16z"/>
<path d="M2565 631 c-3 -5 -1 -12 5 -16 12 -7 30 2 30 16 0 12 -27 12 -35 0z"/>
<path d="M2460 600 c0 -13 7 -20 20 -20 13 0 20 7 20 20 0 13 -7 20 -20 20
-13 0 -20 -7 -20 -20z"/>
<path d="M2362 598 c-15 -15 -3 -38 19 -38 12 0 19 7 19 19 0 22 -23 34 -38
19z"/>
<path d="M2630 590 c0 -5 4 -10 9 -10 6 0 13 5 16 10 3 6 -1 10 -9 10 -9 0
-16 -4 -16 -10z"/>
<path d="M2055 553 c1 -21 3 -44 4 -51 1 -7 5 -11 9 -8 15 9 12 73 -3 86 -12
10 -13 5 -10 -27z"/>
<path d="M2106 582 c-9 -16 11 -52 29 -52 20 0 19 13 -3 41 -13 15 -21 18 -26
11z"/>
<path d="M2175 580 c-9 -14 13 -50 30 -50 18 0 20 31 3 48 -15 15 -25 15 -33
2z"/>
<path d="M2262 568 c2 -15 11 -24 26 -26 20 -3 23 0 20 20 -2 15 -11 24 -26
26 -20 3 -23 0 -20 -20z"/>
<path d="M2527 574 c-9 -10 2 -24 19 -24 8 0 14 7 14 15 0 15 -21 21 -33 9z"/>
<path d="M2690 560 c0 -5 5 -10 10 -10 6 0 10 5 10 10 0 6 -4 10 -10 10 -5 0
-10 -4 -10 -10z"/>
<path d="M2422 543 c4 -22 43 -25 43 -3 0 8 -11 16 -23 18 -19 3 -23 0 -20
-15z"/>
<path d="M3073 553 c12 -3 17 -15 17 -39 0 -19 5 -34 10 -34 6 0 10 15 10 34
0 19 6 37 13 39 6 3 -6 5 -28 5 -22 0 -32 -2 -22 -5z"/>
<path d="M3200 520 c0 -39 1 -40 33 -39 23 1 26 3 10 6 -13 2 -23 11 -23 18 0
7 10 16 23 18 l22 4 -22 2 c-13 0 -23 5 -23 10 0 5 10 12 23 14 16 3 13 5 -10
6 -32 1 -33 0 -33 -39z"/>
<path d="M3340 541 c-5 -11 -7 -27 -4 -35 8 -20 52 -32 66 -18 8 8 3 11 -18 9
-25 -2 -29 2 -29 23 0 19 6 26 30 31 l30 7 -32 1 c-22 1 -35 -5 -43 -18z"/>
<path d="M3480 520 c0 -22 5 -40 10 -40 6 0 10 12 10 28 l1 27 22 -27 c30 -37
37 -35 37 12 0 22 -4 40 -10 40 -5 0 -10 -10 -10 -22 l0 -21 -23 21 c-32 30
-37 28 -37 -18z"/>
<path d="M3640 545 c-21 -25 3 -67 37 -63 34 4 52 31 37 56 -15 23 -57 27 -74
7z m64 -11 c7 -19 -10 -44 -31 -44 -17 0 -27 24 -19 45 7 20 42 19 50 -1z"/>
<path d="M3790 520 c0 -39 1 -40 33 -39 23 1 26 3 10 6 -19 4 -23 11 -23 39 0
19 -4 34 -10 34 -5 0 -10 -18 -10 -40z"/>
<path d="M3927 554 c-12 -13 -8 -51 8 -64 9 -7 25 -10 40 -6 22 6 26 11 23 39
-3 28 -7 32 -33 35 -17 2 -34 0 -38 -4z m61 -30 c4 -27 -26 -40 -46 -20 -21
20 -8 48 20 44 14 -2 24 -11 26 -24z"/>
<path d="M4087 553 c-12 -12 -7 -50 8 -63 19 -16 49 -9 51 13 1 12 1 13 -3 2
-6 -19 -27 -19 -43 0 -18 21 -6 43 27 48 l28 4 -31 2 c-17 0 -34 -2 -37 -6z"/>
<path d="M4233 520 c0 -25 2 -35 4 -22 2 12 2 32 0 45 -2 12 -4 2 -4 -23z"/>
<path d="M4335 529 c-9 -17 -14 -36 -11 -42 3 -9 5 -9 5 1 1 15 43 16 59 0 7
-7 12 -9 12 -5 0 14 -34 77 -42 77 -4 0 -15 -14 -23 -31z m35 -10 c0 -5 -7 -9
-15 -9 -9 0 -12 6 -9 15 6 15 24 11 24 -6z"/>
<path d="M2325 540 c-8 -14 13 -40 32 -40 20 0 12 44 -9 48 -9 2 -19 -2 -23
-8z"/>
<path d="M2596 543 c-11 -11 -6 -23 9 -23 8 0 15 4 15 9 0 13 -16 22 -24 14z"/>
<path d="M2090 528 c0 -6 8 -20 17 -30 16 -18 16 -18 -1 -12 -17 6 -17 5 -5
-17 7 -13 11 -24 8 -24 -2 0 4 -11 14 -25 9 -13 17 -19 17 -13 0 7 -4 15 -10
18 -5 3 -7 24 -5 47 3 23 1 46 -6 54 -14 17 -29 18 -29 2z"/>
<path d="M2156 531 c-4 -5 -3 -16 0 -25 3 -9 2 -16 -4 -16 -8 0 -10 -53 -2
-70 1 -3 2 -7 2 -10 0 -3 8 -17 19 -30 15 -21 19 -22 19 -7 0 10 -7 20 -16 24
-12 4 -13 8 -3 14 10 6 10 11 -1 23 -11 14 -10 16 4 10 19 -7 22 16 4 35 -11
10 -10 11 3 6 24 -9 31 8 13 33 -16 23 -29 28 -38 13z"/>
<path d="M2236 531 c-10 -16 5 -41 25 -41 23 0 26 35 3 44 -20 8 -22 8 -28 -3z"/>
<path d="M2490 505 c0 -10 7 -15 18 -13 21 4 19 22 -2 26 -10 2 -16 -3 -16
-13z"/>
<path d="M2397 504 c-14 -15 -6 -34 14 -34 14 0 19 5 17 17 -3 18 -20 27 -31
17z"/>
<path d="M2650 500 c0 -5 5 -10 10 -10 6 0 10 5 10 10 0 6 -4 10 -10 10 -5 0
-10 -4 -10 -10z"/>
<path d="M2297 494 c-10 -10 12 -44 28 -44 22 0 27 17 9 34 -17 17 -27 20 -37
10z"/>
<path d="M2215 480 c-8 -13 13 -40 31 -40 17 0 18 22 2 38 -15 15 -25 15 -33
2z"/>
<path d="M2550 475 c0 -8 7 -15 15 -15 8 0 15 7 15 15 0 8 -7 15 -15 15 -8 0
-15 -7 -15 -15z"/>
<path d="M2457 464 c-9 -10 2 -24 19 -24 8 0 14 7 14 15 0 15 -21 21 -33 9z"/>
<path d="M2364 449 c-9 -16 12 -33 31 -25 14 5 15 9 5 21 -15 18 -26 19 -36 4z"/>
<path d="M2610 450 c0 -5 5 -10 10 -10 6 0 10 5 10 10 0 6 -4 10 -10 10 -5 0
-10 -4 -10 -10z"/>
<path d="M2277 444 c-9 -10 12 -34 30 -34 19 0 12 34 -8 38 -8 1 -18 0 -22 -4z"/>
<path d="M2200 430 c0 -12 40 -34 47 -26 9 8 -17 36 -33 36 -8 0 -14 -4 -14
-10z"/>
<path d="M2515 431 c-7 -12 12 -24 25 -16 11 7 4 25 -10 25 -5 0 -11 -4 -15
-9z"/>
<path d="M2430 405 c7 -8 16 -15 21 -15 5 0 9 7 9 15 0 9 -9 15 -21 15 -18 0
-19 -2 -9 -15z"/>
<path d="M2200 402 c0 -5 3 -12 8 -16 4 -4 7 -11 8 -14 2 -20 17 -41 26 -36 5
3 4 11 -3 20 -9 11 -9 14 0 14 7 0 9 4 6 10 -9 15 -45 32 -45 22z"/>
<path d="M2267 403 c-9 -9 12 -33 29 -33 17 0 18 12 2 28 -14 14 -22 15 -31 5z"/>
<path d="M2342 398 c7 -19 38 -22 38 -4 0 10 -9 16 -21 16 -12 0 -19 -5 -17
-12z"/>
<path d="M2570 400 c0 -5 4 -10 9 -10 6 0 13 5 16 10 3 6 -1 10 -9 10 -9 0
-16 -4 -16 -10z"/>
<path d="M2490 380 c0 -5 7 -10 15 -10 8 0 15 5 15 10 0 6 -7 10 -15 10 -8 0
-15 -4 -15 -10z"/>
<path d="M2625 380 c-3 -5 -1 -10 4 -10 6 0 11 5 11 10 0 6 -2 10 -4 10 -3 0
-8 -4 -11 -10z"/>
<path d="M2410 365 c7 -8 16 -15 21 -15 5 0 9 7 9 15 0 9 -9 15 -21 15 -18 0
-19 -2 -9 -15z"/>
<path d="M2269 357 c6 -8 8 -17 4 -20 -3 -4 2 -9 11 -13 9 -3 13 -10 10 -15
-3 -5 0 -9 5 -9 14 0 14 17 1 25 -6 4 -7 11 -4 17 4 6 0 14 -7 19 -21 13 -33
11 -20 -4z"/>
<path d="M2330 361 c0 -10 30 -24 37 -17 3 3 2 9 -2 15 -8 13 -35 15 -35 2z"/>
<path d="M2540 360 c0 -5 5 -10 10 -10 6 0 10 5 10 10 0 6 -4 10 -10 10 -5 0
-10 -4 -10 -10z"/>
<path d="M2466 351 c-3 -5 1 -11 9 -15 8 -3 15 -1 15 4 0 13 -18 22 -24 11z"/>
<path d="M2392 339 c2 -7 10 -15 17 -17 8 -3 12 1 9 9 -2 7 -10 15 -17 17 -8
3 -12 -1 -9 -9z"/>
<path d="M2325 330 c3 -5 13 -10 21 -10 8 0 12 5 9 10 -3 6 -13 10 -21 10 -8
0 -12 -4 -9 -10z"/>
<path d="M2390 310 c0 -6 7 -10 15 -10 8 0 15 2 15 4 0 2 -7 6 -15 10 -8 3
-15 1 -15 -4z"/>
<path d="M2458 313 c7 -3 16 -2 19 1 4 3 -2 6 -13 5 -11 0 -14 -3 -6 -6z"/>
<path d="M2338 303 c7 -3 16 -2 19 1 4 3 -2 6 -13 5 -11 0 -14 -3 -6 -6z"/>
<path d="M2453 285 c0 -8 4 -12 9 -9 5 3 6 10 3 15 -9 13 -12 11 -12 -6z"/>
</g>
</svg>
