<?xml version="1.0" encoding="UTF-8"?>
<svg version="1.1" viewBox="0 0 2048 500" width="1280" height="1280" xmlns="http://www.w3.org/2000/svg">
<path transform="translate(0)" d="m0 0h2048v500h-2048z" fill="#FDFDFD"/>
<path transform="translate(158,81)" d="m0 0h179l8 5 9 10 5 11-1 10-3 10 3-1h19l9 2 8 6 7 8 3 8v10l-6 21-46 138-6 17-7 13-9 10-8 7-13 6-9 2-9 1h-167l-12-3-10-9-6-10-1-3v-10l2-11h-22l-10-4-8-7-6-10-1-3v-10l5-19 14-42 14-41 19-58 10-25 7-10 9-9 14-7z" fill="#13C9F0"/>
<path transform="translate(358,126)" d="m0 0h19l9 2 8 6 7 8 3 8v10l-6 21-46 138-6 17-7 13-9 10-8 7-13 6-9 2-9 1h-167l-12-3-10-9-6-10-1-3v-10l3-10 2-2h147l12-2 13-5 10-7 8-8 8-14 6-15 45-135 5-14z" fill="#0857FA"/>
<path transform="translate(158,81)" d="m0 0h179l8 5 9 10 5 11-1 10-3 10-151 1-14 2-11 4-11 8-8 11-8 17-12 36-26 79-12 36-3 7-1 5-1-4h-22l-10-4-8-7-6-10-1-3v-10l5-19 14-42 14-41 19-58 10-25 7-10 9-9 14-7z" fill="#4AEFF0"/>
<path transform="translate(471,129)" d="m0 0h69l16 2 11 4 11 6 7 6 8 11 6 12 4 16v20l-4 17-7 13-11 12-10 7-13 5-8 2-10 1h-45l-1 66h-28v-199z" fill="#091C37"/>
<path transform="translate(716,156)" d="m0 0 17 1 14 4 12 6 10 8 8 8 8 13 5 14 2 9v19l-4 17-7 14-8 10-8 8-15 9-15 5-6 1h-18l-16-4-16-8-12-11-7-8-8-16-3-9-2-18 2-16 5-14 6-10 8-10 10-9 14-8 14-4z" fill="#FDFDFD"/>
<path transform="translate(1248,156)" d="m0 0 18 1 16 5 12 7 12 11 8 10 7 15 3 12v23l-4 16-8 15-9 11-10 8-16 8-16 4h-17l-14-3-12-5-10-7-10-9-8-11-6-12-4-17v-18l4-17 8-15 9-11 12-10 14-7 11-3z" fill="#FDFDFD"/>
<path transform="translate(1243,127)" d="m0 0h18l17 3 16 6 15 8 11 9 10 10 7 10 10 19 5 16 2 15v12l-3 19-5 15-9 17-9 11-5 6-11 9-13 8-14 6-14 4-8 1h-22l-16-3-16-6-14-8-13-11-7-7-10-14-8-17-5-17-1-7v-23l3-16 6-16 7-13 11-14 8-8 14-10 14-7 16-5zm5 29-14 2-14 5-11 7-11 10-9 13-6 13-3 14v18l4 17 7 14 9 11 10 9 14 8 13 4 7 1h17l16-4 16-8 13-11 8-11 7-15 3-13v-23l-4-14-8-16-11-12-10-8-14-7-11-3z" fill="#091C37"/>
<path transform="translate(711,127)" d="m0 0h17l14 2 18 6 15 8 13 10 9 9 7 10 9 16 6 18 2 11v23l-3 16-5 15-9 16-11 13-8 8-13 9-14 7-15 5-12 2h-22l-16-3-16-6-14-8-11-9-9-9-10-14-8-16-5-17-2-14v-13l3-17 6-18 9-16 9-11 11-11 15-10 16-7 16-4zm5 29-15 2-13 5-11 7-10 9-9 12-7 14-3 12-1 15 2 14 5 14 7 12 9 10 9 8 16 8 16 4h18l16-4 14-7 9-7 8-8 9-14 5-14 2-10v-19l-4-16-7-14-7-9-8-8-11-7-8-4-14-4z" fill="#091C37"/>
<path transform="translate(849,129)" d="m0 0h69l16 2 14 5 11 7 9 9 7 11 5 14 2 12v8l-3 16-8 16-11 12-11 7-13 5-4 2 8 10 22 26 9 11 11 13 10 12v2h-35l-12-12-9-11-12-14-11-14-9-10-11-14-9-11-1-2v-13l31-1 15-2 12-6 6-7 4-10 1-9-2-13-6-10-9-7-10-3h-52l-1 168-1 1h-27v-199z" fill="#091C37"/>
<path transform="translate(1717,129)" d="m0 0h65l19 2 14 5 11 7 9 9 8 14 4 12 1 5v20l-3 12-7 14-11 12-11 7-13 5-4 2 11 14 12 14 9 11 12 14 7 8 9 11v2h-35l-13-13-11-14-9-10-18-22-12-14-10-13-2-9v-5l1-1 31-1 15-2 12-6 7-9 3-8 1-12-3-12-6-9-9-6-9-3h-52l-1 168-1 1h-27v-199z" fill="#091C37"/>
<path transform="translate(1865,130)" d="m0 0h121v28l-15 1-76 1v54l89 1v28l-1 1-88 1v54l7 1h85v28l-2 1h-119l-1-3z" fill="#091C37"/>
<path transform="translate(1432,128)" d="m0 0h27l15 4 14 7 10 8 8 11 5 11 2 6-1 5-15 1h-11l-6-9-5-6-10-6-13-3h-16l-12 3-8 4-6 5-5 9-1 3v11l4 9 6 5 11 4 43 7 16 5 16 8 9 9 5 8 4 12 1 13-3 16-6 12-11 12-10 7-15 7-16 4-17 1-19-3-13-5-11-6-10-9-8-9-5-11-3-13 1-4 28-1 4 12 6 8 10 6 12 4 7 1h12l12-3 14-7 7-8 3-7v-13l-4-8-8-5-15-4-40-6-16-5-11-6-7-6-6-8-5-11-2-9v-16l3-12 6-11 9-10 8-6 16-8z" fill="#091C37"/>
<path transform="translate(1539,130)" d="m0 0h29l1 143 3 9 4 6 8 6 12 5 11 2h11l14-3 14-7 7-8 3-10 1-112 1-31h28v147l-3 12-6 12-10 11-10 7-12 6-12 4-12 2h-15l-18-3-17-7-10-7-8-7-7-10-5-12-2-10z" fill="#091C37"/>
<path transform="translate(993,129)" d="m0 0h143l3 1v18l-1 8-55 1-4 1-1 171-1 1h-27v-173l-61-1v-26z" fill="#091C37"/>
<path transform="translate(495,159)" d="m0 0h52l11 4 9 8 6 12 2 8v9l-2 10-5 10-5 6-8 5-6 2-7 1h-47l-1-4z" fill="#FDFDFD"/>
<path transform="translate(103,133)" d="m0 0h2l-3 11-14 43-31 93-4 14h-1v-8l16-49 16-47 18-55z" fill="#2FDCF0"/>
<path transform="translate(73,227)" d="m0 0 1 2-16 47-5 18h-1v-8l16-49 4-9z" fill="#29D8F0"/>
<path transform="translate(60,261)" d="m0 0h2l-2 9-7 24h-1v-8z" fill="#2BDAF0"/>
<path transform="translate(103,133)" d="m0 0h2l-3 11-5 16h-1v-7z" fill="#2AD9F0"/>
<path transform="translate(114,107)" d="m0 0h2l-2 6-7 17h-1v-6l7-16z" fill="#27D7F0"/>
</svg>
